<?xml version="1.0" encoding="UTF-8"?>
<svg version="1.1" xmlns="http://www.w3.org/2000/svg" width="273" height="233">
<path d="M0 0 C1.05134125 -0.01283524 2.1026825 -0.02567047 3.18588257 -0.03889465 C4.90298935 -0.04997505 4.90298935 -0.04997505 6.65478516 -0.0612793 C7.82264557 -0.06935104 8.99050598 -0.07742279 10.1937561 -0.08573914 C12.67033392 -0.09959884 15.146931 -0.11031251 17.62353516 -0.11816406 C21.42077585 -0.13539336 25.21715003 -0.17926605 29.01416016 -0.22338867 C31.41519539 -0.23351341 33.81623806 -0.2420302 36.21728516 -0.2487793 C37.35797455 -0.26628738 38.49866394 -0.28379547 39.67391968 -0.30183411 C40.73156525 -0.29890854 41.78921082 -0.29598297 42.87890625 -0.29296875 C43.81076752 -0.29883499 44.74262878 -0.30470123 45.70272827 -0.31074524 C48.06884766 0.17700195 48.06884766 0.17700195 49.89712524 1.98371887 C51.69029979 5.3402642 51.04771371 7.58782643 50.06884766 11.17700195 C48.28556332 13.21115213 46.85733969 14.07165681 44.16223145 14.43173218 C41.74488764 14.52523622 39.34698669 14.51380955 36.92822266 14.4699707 C36.04604065 14.46572586 35.16385864 14.46148102 34.25494385 14.45710754 C31.44259882 14.44034034 28.63097539 14.40269194 25.81884766 14.36450195 C23.91000385 14.34945257 22.0011488 14.33576461 20.09228516 14.32348633 C15.41752876 14.29044323 10.74331048 14.2386745 6.06884766 14.17700195 C5.76140625 15.87469727 5.76140625 15.87469727 5.44775391 17.60668945 C5.17577794 19.08848956 4.90363379 20.57025881 4.63134766 22.05200195 C4.42928711 23.17155273 4.42928711 23.17155273 4.22314453 24.3137207 C3.18212891 29.95043945 3.18212891 29.95043945 2.06884766 32.17700195 C2.64852295 32.1612915 3.22819824 32.14558105 3.82543945 32.12939453 C6.46897505 32.06677405 9.1123542 32.02792677 11.75634766 31.98950195 C13.12436523 31.95179687 13.12436523 31.95179687 14.52001953 31.91333008 C19.53946092 31.85857254 23.00744242 31.86859887 27.06884766 35.17700195 C29.06884766 37.17700195 29.06884766 37.17700195 29.44384766 40.05200195 C29.06884766 43.17700195 29.06884766 43.17700195 27.46569824 45.34117126 C24.28094474 47.78048402 22.33317445 47.67584312 18.34423828 47.67529297 C17.67708298 47.68081177 17.00992767 47.68633057 16.32255554 47.6920166 C14.87829019 47.70132159 13.43394279 47.70145407 11.9896698 47.69342232 C9.70269841 47.68078442 7.41693255 47.69208701 5.13000488 47.7094574 C1.1004526 47.73615572 -2.92880389 47.74175316 -6.95843506 47.74035645 C-13.40807276 47.73812766 -19.8573446 47.75223809 -26.30683899 47.79594231 C-28.55822987 47.80578072 -30.80904575 47.7970641 -33.0604248 47.7872467 C-34.44246802 47.79339124 -35.82450812 47.80030308 -37.20654297 47.80810547 C-38.41137329 47.80714371 -39.61620361 47.80618195 -40.85754395 47.80519104 C-44.19141307 48.2084854 -45.59850995 48.79495987 -47.93115234 51.17700195 C-48.43130188 53.71958659 -48.43130188 53.71958659 -47.93115234 56.17700195 C-45.42050469 58.68764961 -43.89589296 58.41829838 -40.4705658 58.44487 C-39.70950027 58.440746 -38.94843475 58.43662201 -38.16430664 58.43237305 C-37.36249969 58.4359935 -36.56069275 58.43961395 -35.73458862 58.44334412 C-33.99015632 58.45024734 -32.24570238 58.45274182 -30.50125694 58.45139694 C-27.73976852 58.45043401 -24.97867185 58.46334663 -22.21723938 58.4803772 C-14.36482811 58.526717 -6.51245531 58.55125307 1.34008789 58.55786133 C6.14065073 58.56287599 10.94080682 58.58712656 15.74123192 58.62318802 C17.57081854 58.6329901 19.4004611 58.63531573 21.2300663 58.63001633 C23.79175875 58.62294613 26.35224031 58.64022713 28.91381836 58.6628418 C30.0463076 58.65058311 30.0463076 58.65058311 31.20167542 58.63807678 C34.81334132 58.69475666 36.93410694 59.09485904 40.04338074 60.99038696 C42.06884766 63.17700195 42.06884766 63.17700195 42.63134766 66.67700195 C42.06884766 70.17700195 42.06884766 70.17700195 40.62709045 72.36361694 C36.75692736 75.10694363 33.21122823 74.73295843 28.57446289 74.69116211 C27.13240982 74.70184975 27.13240982 74.70184975 25.66122437 74.7127533 C22.4830885 74.73205465 19.30561654 74.72375149 16.12744141 74.71606445 C13.92073083 74.72596683 11.71402853 74.73790632 9.50733948 74.75180054 C3.69699594 74.78420078 -2.113159 74.79455851 -7.92358398 74.79864502 C-17.2279025 74.80739387 -26.53206586 74.84279486 -35.83625603 74.89081955 C-39.09081117 74.90344133 -42.34517195 74.90264353 -45.5997467 74.90054321 C-47.58855338 74.9071216 -49.57735871 74.91412748 -51.56616211 74.92163086 C-52.47481522 74.91750687 -53.38346832 74.91338287 -54.31965637 74.90913391 C-55.15100098 74.91451675 -55.98234558 74.9198996 -56.83888245 74.92544556 C-57.92203153 74.92594878 -57.92203153 74.92594878 -59.02706242 74.92646217 C-61.26061643 75.07784537 -61.26061643 75.07784537 -63.93115234 77.17700195 C-64.43115234 80.17700195 -64.43115234 80.17700195 -63.93115234 83.17700195 C-60.29093476 85.60381368 -58.56460113 85.43310681 -54.22827148 85.44824219 C-53.21312721 85.45608231 -53.21312721 85.45608231 -52.17747498 85.46408081 C-50.70917643 85.47431557 -49.24084166 85.48010031 -47.77250862 85.4819622 C-45.44805576 85.48562446 -43.12403009 85.50234643 -40.79966736 85.52272034 C-34.19163961 85.5781486 -27.58354899 85.60882654 -20.9753418 85.63330078 C-16.93226972 85.64917749 -12.88950111 85.67939693 -8.84658623 85.71806526 C-7.30645406 85.72971401 -5.76626761 85.7356456 -4.22609138 85.73574638 C-2.07154793 85.73593849 0.0821588 85.75420734 2.23657227 85.77636719 C4.0749894 85.78397316 4.0749894 85.78397316 5.95054626 85.79173279 C9.30722128 86.20645325 10.67774709 86.83808503 13.06884766 89.17700195 C14.32061265 91.8593555 14.1386142 92.95160236 13.25634766 95.80200195 C12.06884766 98.17700195 12.06884766 98.17700195 10.06884766 100.17700195 C7.91236877 100.44874573 7.91236877 100.44874573 5.20776367 100.47998047 C4.19653946 100.49662247 3.18531525 100.51326447 2.14344788 100.53041077 C1.04761887 100.53882492 -0.04821014 100.54723907 -1.17724609 100.5559082 C-2.86032616 100.58139992 -2.86032616 100.58139992 -4.57740784 100.60740662 C-8.17443163 100.66068393 -11.77144352 100.70088934 -15.36865234 100.73950195 C-18.96223019 100.78341093 -22.55571769 100.83012974 -26.14918518 100.88230896 C-28.38832351 100.91428618 -30.62754135 100.94116995 -32.86680603 100.96253967 C-34.38837059 100.98277443 -34.38837059 100.98277443 -35.94067383 101.00341797 C-36.83398911 101.01292984 -37.72730438 101.02244171 -38.64768982 101.03224182 C-41.09537081 101.08975648 -41.09537081 101.08975648 -43.93115234 102.17700195 C-44.65372064 106.6583377 -44.65372064 106.6583377 -44.93115234 111.17700195 C-43.69196045 111.18316528 -43.69196045 111.18316528 -42.42773438 111.18945312 C-39.31465375 111.21668441 -36.20286691 111.26603035 -33.09033203 111.32958984 C-31.09998836 111.36374961 -29.1092693 111.3731934 -27.11865234 111.38208008 C-18.50281888 111.57789448 -10.52920286 112.42016694 -4.25561523 118.91040039 C0.31020407 124.93172027 0.70820759 130.85342448 0.06884766 138.17700195 C-2.09412871 144.09672674 -5.508132 148.95328504 -11.19927979 151.82752991 C-17.42227233 154.00064741 -23.9437177 153.60405293 -30.45361328 153.58105469 C-31.91627014 153.58676444 -33.37892254 153.59373103 -34.84156799 153.60185242 C-38.79378095 153.61972414 -42.7457712 153.61862781 -46.69801235 153.61291003 C-50.00105415 153.60981205 -53.30405354 153.61591681 -56.60708928 153.62194878 C-64.39629882 153.63597026 -72.1853986 153.6344502 -79.97460938 153.62304688 C-88.00914092 153.61154438 -96.0433395 153.62568229 -104.07782722 153.65244335 C-110.98332562 153.67458229 -117.88871934 153.68124252 -124.79425073 153.67536694 C-128.91576897 153.67199466 -133.03707334 153.67443135 -137.15856171 153.69161797 C-141.02963077 153.70705836 -144.90020431 153.70316453 -148.77125359 153.68431282 C-150.19185477 153.68062002 -151.61249247 153.68375558 -153.03306007 153.69419861 C-154.97111972 153.7073594 -156.90930695 153.69348335 -158.84735107 153.6782074 C-160.47440035 153.67789347 -160.47440035 153.67789347 -162.13431931 153.6775732 C-165.61960038 153.05378498 -166.80155695 151.95819219 -168.93115234 149.17700195 C-169.43115234 146.17700195 -169.43115234 146.17700195 -168.93115234 143.17700195 C-166.80661572 140.40665868 -165.62500774 139.30167303 -162.15158749 138.6775732 C-160.5369201 138.67788713 -160.5369201 138.67788713 -158.88963318 138.6782074 C-157.65158936 138.66863007 -156.41354553 138.65905273 -155.13798523 138.64918518 C-153.76882691 138.65868239 -152.39967103 138.66853628 -151.03051758 138.67871094 C-149.58653198 138.67488741 -148.14255018 138.66926809 -146.69857788 138.6619873 C-143.59098371 138.6500364 -140.4837274 138.65052591 -137.37612724 138.66058159 C-132.4643371 138.67613223 -127.55289462 138.66247231 -122.64112854 138.64454651 C-113.10387527 138.61372171 -103.56672808 138.61222598 -94.0294342 138.61419678 C-81.88576922 138.61558958 -69.74218551 138.60530211 -57.5985809 138.56561905 C-52.7137121 138.55065948 -47.82915031 138.55097431 -42.94427669 138.56309688 C-39.90890999 138.56779799 -36.87366155 138.56030357 -33.83831406 138.54955292 C-32.42858229 138.54714092 -31.01883097 138.54990273 -29.60912132 138.55816078 C-27.68800346 138.56874363 -25.76680613 138.55932268 -23.84568787 138.54881287 C-22.23158602 138.54969233 -22.23158602 138.54969233 -20.58487606 138.55058956 C-17.92422402 138.37951665 -17.92422402 138.37951665 -16.07321262 136.88423252 C-14.22675475 134.12401979 -14.74920867 131.39134026 -14.93115234 128.17700195 C-18.16654038 127.21554716 -21.08325883 127.0500427 -24.45222473 127.04570007 C-25.57510391 127.04169189 -26.69798309 127.03768372 -27.85488892 127.03355408 C-29.69631973 127.03434715 -29.69631973 127.03434715 -31.57495117 127.03515625 C-33.56484796 127.02982288 -35.55474474 127.02448353 -37.5446409 127.01891959 C-39.68188419 127.0137263 -41.81912134 127.01081021 -43.9563694 127.00833702 C-48.4155068 127.00241698 -52.8745648 126.98586703 -57.33366394 126.96699524 C-58.86158843 126.96065812 -60.38951297 126.95433249 -61.91743755 126.94801807 C-62.68255417 126.94485226 -63.44767079 126.94168645 -64.23597276 126.93842471 C-74.61457654 126.89638377 -84.9931429 126.86337616 -95.37182617 126.85107422 C-102.37624879 126.84268661 -109.38047425 126.8201712 -116.38479823 126.78171855 C-120.08896147 126.76198327 -123.79283016 126.74954486 -127.49704933 126.75455284 C-131.63136342 126.76007442 -135.76494509 126.73476495 -139.89916992 126.70703125 C-141.7314917 126.71693336 -141.7314917 126.71693336 -143.60083008 126.72703552 C-151.62837875 126.63856981 -156.09275746 125.5941096 -162.17333984 120.1809082 C-164.93685056 115.45837545 -165.87073754 110.42344852 -167.05615234 105.11450195 C-167.34111572 103.88256104 -167.6260791 102.65062012 -167.91967773 101.38134766 C-168.56578714 98.58641492 -169.20270696 95.78955317 -169.83496094 92.99145508 C-170.83853794 88.56288049 -171.87285359 84.14183494 -172.91119385 79.72129822 C-173.84102745 75.75710652 -174.76209685 71.79090974 -175.68133545 67.82424927 C-176.13746575 65.86004549 -176.59598118 63.89639397 -177.0569458 61.93331909 C-177.70991326 59.14538177 -178.35120246 56.35499214 -178.98974609 53.5637207 C-179.28453606 52.31990631 -179.28453606 52.31990631 -179.58528137 51.05096436 C-180.73097538 45.97725539 -181.37752357 41.38137292 -180.93115234 36.17700195 C-179.79336548 34.47897339 -179.79336548 34.47897339 -177.93115234 33.17700195 C-175.20137024 32.77827454 -175.20137024 32.77827454 -171.8269043 32.74462891 C-170.54639694 32.72483978 -169.26588959 32.70505066 -167.94657898 32.68466187 C-166.52086549 32.67784961 -165.09515022 32.6714029 -163.66943359 32.6652832 C-162.16439969 32.64828206 -160.65937903 32.63007243 -159.15437317 32.61074829 C-155.04405579 32.56211395 -150.93379797 32.53278162 -146.82328033 32.50724411 C-143.38153044 32.48357245 -139.93992684 32.44889976 -136.49827194 32.41432667 C-94.97801879 32.00131178 -53.45281629 32.07777979 -11.93115234 32.17700195 C-11.77763306 30.91895248 -11.62411377 29.66090302 -11.46594238 28.36473083 C-10.80062642 22.91264463 -9.61048254 17.60040006 -8.43115234 12.23950195 C-8.20556641 11.18698242 -7.97998047 10.13446289 -7.74755859 9.05004883 C-7.52970703 8.05166992 -7.31185547 7.05329102 -7.08740234 6.0246582 C-6.88953125 5.11723877 -6.69166016 4.20981934 -6.48779297 3.27490234 C-5.45632759 -0.6125459 -3.72939947 0.03946487 0 0 Z M-82.93115234 101.17700195 C-85.25153329 104.00268741 -85.25153329 104.00268741 -84.74365234 107.23950195 C-84.19360737 110.47441148 -84.19360737 110.47441148 -80.93115234 112.17700195 C-77.9449928 112.5986171 -74.94396979 112.50134479 -71.93115234 112.48950195 C-71.11130859 112.50561523 -70.29146484 112.52172852 -69.44677734 112.53833008 C-68.26341797 112.53929687 -68.26341797 112.53929687 -67.05615234 112.5402832 C-65.97720703 112.54475464 -65.97720703 112.54475464 -64.87646484 112.54931641 C-62.35330149 112.06640675 -61.47420069 111.20047247 -59.93115234 109.17700195 C-59.34781901 106.17700195 -59.34781901 106.17700195 -59.93115234 103.17700195 C-62.45159224 100.41098074 -63.94187983 100.17607202 -67.71630859 99.84887695 C-69.14228845 99.85944956 -70.56822444 99.88594552 -71.99365234 99.92700195 C-73.07356445 99.93473633 -73.07356445 99.93473633 -74.17529297 99.94262695 C-77.33923067 99.98963067 -79.9122811 100.17071154 -82.93115234 101.17700195 Z " fill="#8B3B7E" transform="translate(214.93115234375,19.822998046875)"/>
<path d="M0 0 C9.48421053 -0.55789474 9.48421053 -0.55789474 14 3 C16 5 16 5 16.375 7.875 C16 11 16 11 14.39685059 13.16416931 C11.21209708 15.60348207 9.26432679 15.49884116 5.27539062 15.49829102 C4.60823532 15.50380981 3.94108002 15.50932861 3.25370789 15.51501465 C1.80944254 15.52431964 0.36509513 15.52445211 -1.07917786 15.51642036 C-3.36614925 15.50378247 -5.6519151 15.51508506 -7.93884277 15.53245544 C-11.96839506 15.55915377 -15.99765154 15.56475121 -20.02728271 15.56335449 C-26.47692042 15.5611257 -32.92619226 15.57523614 -39.37568665 15.61894035 C-41.62707753 15.62877877 -43.87789341 15.62006215 -46.12927246 15.61024475 C-47.51131568 15.61638928 -48.89335577 15.62330113 -50.27539062 15.63110352 C-51.48022095 15.63014175 -52.68505127 15.62917999 -53.9263916 15.62818909 C-57.26026073 16.03148344 -58.66735761 16.61795792 -61 19 C-61.50014953 21.54258463 -61.50014953 21.54258463 -61 24 C-58.48935235 26.51064765 -56.96474061 26.24129643 -53.53941345 26.26786804 C-52.77834793 26.26374405 -52.01728241 26.25962006 -51.2331543 26.25537109 C-50.43134735 26.25899155 -49.62954041 26.262612 -48.80343628 26.26634216 C-47.05900398 26.27324538 -45.31455004 26.27573987 -43.5701046 26.27439499 C-40.80861618 26.27343206 -38.04751951 26.28634468 -35.28608704 26.30337524 C-27.43367577 26.34971504 -19.58130297 26.37425112 -11.72875977 26.38085938 C-6.92819693 26.38587403 -2.12804084 26.41012461 2.67238426 26.44618607 C4.50197088 26.45598815 6.33161344 26.45831378 8.16121864 26.45301437 C10.72291109 26.44594418 13.28339266 26.46322518 15.8449707 26.48583984 C16.59996353 26.47766739 17.35495636 26.46949493 18.13282776 26.46107483 C21.74449367 26.51775471 23.86525928 26.91785709 26.97453308 28.81338501 C29 31 29 31 29.5625 34.5 C29 38 29 38 27.5582428 40.18661499 C23.6880797 42.92994168 20.14238057 42.55595648 15.50561523 42.51416016 C14.06356216 42.52484779 14.06356216 42.52484779 12.59237671 42.53575134 C9.41424084 42.55505269 6.23676889 42.54674954 3.05859375 42.5390625 C0.85188317 42.54896488 -1.35481913 42.56090437 -3.56150818 42.57479858 C-9.37185171 42.60719882 -15.18200666 42.61755655 -20.99243164 42.62164307 C-30.29675016 42.63039191 -39.60091351 42.6657929 -48.90510368 42.7138176 C-52.15965882 42.72643938 -55.41401961 42.72564157 -58.66859436 42.72354126 C-60.65740104 42.73011965 -62.64620636 42.73712552 -64.63500977 42.74462891 C-65.54366287 42.74050491 -66.45231598 42.73638092 -67.38850403 42.73213196 C-68.21984863 42.7375148 -69.05119324 42.74289764 -69.9077301 42.7484436 C-70.99087919 42.74894683 -70.99087919 42.74894683 -72.09591007 42.74946022 C-74.32946408 42.90084342 -74.32946408 42.90084342 -77 45 C-77.5 48 -77.5 48 -77 51 C-73.35978241 53.42681173 -71.63344878 53.25610486 -67.29711914 53.27124023 C-66.28197487 53.27908035 -66.28197487 53.27908035 -65.24632263 53.28707886 C-63.77802409 53.29731362 -62.30968931 53.30309836 -60.84135628 53.30496025 C-58.51690341 53.30862251 -56.19287775 53.32534448 -53.86851501 53.34571838 C-47.26048726 53.40114665 -40.65239664 53.43182458 -34.04418945 53.45629883 C-30.00111737 53.47217554 -25.95834877 53.50239497 -21.91543388 53.54106331 C-20.37530171 53.55271205 -18.83511526 53.55864365 -17.29493904 53.55874443 C-15.14039559 53.55893654 -12.98668885 53.57720539 -10.83227539 53.59936523 C-8.99385826 53.60697121 -8.99385826 53.60697121 -7.11830139 53.61473083 C-3.76162638 54.02945129 -2.39110057 54.66108308 0 57 C1.25176499 59.68235355 1.06976654 60.7746004 0.1875 63.625 C-1 66 -1 66 -3 68 C-5.15647888 68.27174377 -5.15647888 68.27174377 -7.86108398 68.30297852 C-8.8723082 68.31962051 -9.88353241 68.33626251 -10.92539978 68.35340881 C-12.02122879 68.36182297 -13.1170578 68.37023712 -14.24609375 68.37890625 C-15.92917381 68.40439796 -15.92917381 68.40439796 -17.64625549 68.43040466 C-21.24327929 68.48368198 -24.84029117 68.52388738 -28.4375 68.5625 C-32.03107784 68.60640898 -35.62456535 68.65312778 -39.21803284 68.70530701 C-41.45717116 68.73728423 -43.696389 68.764168 -45.93565369 68.78553772 C-47.45721825 68.80577248 -47.45721825 68.80577248 -49.00952148 68.82641602 C-49.90283676 68.83592789 -50.79615204 68.84543976 -51.71653748 68.85523987 C-54.16421847 68.91275453 -54.16421847 68.91275453 -57 70 C-57.72256829 74.48133574 -57.72256829 74.48133574 -58 79 C-56.76080811 79.00616333 -56.76080811 79.00616333 -55.49658203 79.01245117 C-52.3835014 79.03968246 -49.27171457 79.08902839 -46.15917969 79.15258789 C-44.16883601 79.18674765 -42.17811696 79.19619144 -40.1875 79.20507812 C-31.57166654 79.40089252 -23.59805052 80.24316499 -17.32446289 86.73339844 C-12.75864358 92.75471832 -12.36064006 98.67642253 -13 106 C-15.16297636 111.91972479 -18.57697965 116.77628309 -24.26812744 119.65052795 C-30.49111999 121.82364545 -37.01256535 121.42705097 -43.52246094 121.40405273 C-44.98511779 121.40976248 -46.4477702 121.41672908 -47.91041565 121.42485046 C-51.86262861 121.44272219 -55.81461885 121.44162586 -59.76686001 121.43590808 C-63.0699018 121.43281009 -66.37290119 121.43891486 -69.67593694 121.44494683 C-77.46514648 121.45896831 -85.25424626 121.45744825 -93.04345703 121.44604492 C-101.07798858 121.43454243 -109.11218715 121.44868033 -117.14667487 121.4754414 C-124.05217328 121.49758034 -130.957567 121.50424057 -137.86309838 121.49836498 C-141.98461663 121.4949927 -146.105921 121.49742939 -150.22740936 121.51461601 C-154.09847843 121.5300564 -157.96905196 121.52616257 -161.84010124 121.50731087 C-163.26070243 121.50361807 -164.68134013 121.50675362 -166.10190773 121.51719666 C-168.03996738 121.53035745 -169.9781546 121.5164814 -171.91619873 121.50120544 C-173.543248 121.50089152 -173.543248 121.50089152 -175.20316696 121.50057125 C-178.68844804 120.87678303 -179.8704046 119.78119024 -182 117 C-182.5 114 -182.5 114 -182 111 C-179.87546338 108.22965672 -178.6938554 107.12467107 -175.22043514 106.50057125 C-173.60576776 106.50088518 -173.60576776 106.50088518 -171.95848083 106.50120544 C-170.72043701 106.49162811 -169.48239319 106.48205078 -168.20683289 106.47218323 C-166.83767457 106.48168044 -165.46851869 106.49153432 -164.09936523 106.50170898 C-162.65537964 106.49788546 -161.21139784 106.49226613 -159.76742554 106.48498535 C-156.65983137 106.47303445 -153.55257505 106.47352396 -150.4449749 106.48357964 C-145.53318475 106.49913027 -140.62174228 106.48547036 -135.7099762 106.46754456 C-126.17272293 106.43671975 -116.63557574 106.43522403 -107.09828186 106.43719482 C-94.95461688 106.43858763 -82.81103317 106.42830015 -70.66742855 106.3886171 C-65.78255976 106.37365753 -60.89799797 106.37397236 -56.01312435 106.38609493 C-52.97775765 106.39079604 -49.94250921 106.38330162 -46.90716171 106.37255096 C-45.49742994 106.37013897 -44.08767862 106.37290078 -42.67796898 106.38115883 C-40.75685112 106.39174168 -38.83565379 106.38232072 -36.91453552 106.37181091 C-35.30043368 106.37269038 -35.30043368 106.37269038 -33.65372372 106.37358761 C-30.99307167 106.2025147 -30.99307167 106.2025147 -29.14206028 104.70723057 C-27.2956024 101.94701783 -27.81805632 99.2143383 -28 96 C-31.95646586 94.72276155 -35.97587306 94.79310369 -40.08984375 94.71875 C-40.87138321 94.70034058 -41.65292267 94.68193115 -42.45814514 94.66296387 C-44.9511889 94.60436659 -47.44430005 94.55149549 -49.9375 94.5 C-53.21758487 94.43210773 -56.49746539 94.35841417 -59.77734375 94.28125 C-60.52644516 94.26767456 -61.27554657 94.25409912 -62.04734802 94.2401123 C-65.80725398 94.15126423 -69.3405804 93.88887685 -73 93 C-73 92.67 -73 92.34 -73 92 C-71.68281982 92.01047363 -70.36563965 92.02094727 -69.00854492 92.03173828 C-64.12771313 92.06790283 -59.24689321 92.09088759 -54.3659668 92.10986328 C-52.25233978 92.11992894 -50.1387267 92.13358257 -48.02514648 92.15087891 C-44.98938558 92.1751023 -41.95380857 92.18647738 -38.91796875 92.1953125 C-37.97100632 92.20563507 -37.02404388 92.21595764 -36.04838562 92.22659302 C-34.72735588 92.22681961 -34.72735588 92.22681961 -33.37963867 92.22705078 C-32.60464523 92.231492 -31.82965179 92.23593323 -31.03117371 92.24050903 C-28.68688455 92.11843265 -28.68688455 92.11843265 -26 90 C-26.66 89.67 -27.32 89.34 -28 89 C-27.34 87.35 -26.68 85.7 -26 84 C-26.62648437 84.02320313 -27.25296875 84.04640625 -27.8984375 84.0703125 C-28.71570313 84.08835937 -29.53296875 84.10640625 -30.375 84.125 C-31.18710938 84.14820313 -31.99921875 84.17140625 -32.8359375 84.1953125 C-35 84 -35 84 -37 82 C-39.36509361 81.69940057 -41.74441881 81.50484988 -44.125 81.375 C-45.40632812 81.30023438 -46.68765625 81.22546875 -48.0078125 81.1484375 C-49.48894531 81.07496094 -49.48894531 81.07496094 -51 81 C-51.33 82.32 -51.66 83.64 -52 85 C-53.32 84.01 -54.64 83.02 -56 82 C-56 82.99 -56 83.98 -56 85 C-57.65 84.67 -59.3 84.34 -61 84 C-60.79375 83.236875 -60.5875 82.47375 -60.375 81.6875 C-59.66608797 78.78114056 -59.66608797 78.78114056 -62 76 C-62.54878049 70.73170732 -62.54878049 70.73170732 -60.6875 68.25 C-56.46303367 65.12076568 -53.73152294 64.71739198 -48.625 64.8125 C-47.90820068 64.81822021 -47.19140137 64.82394043 -46.45288086 64.82983398 C-42.12997321 64.88790791 -37.86785041 65.14883801 -33.5625 65.5625 C-25.67125035 66.27807931 -17.87808408 65.61326403 -10 65 C-9.67 64.34 -9.34 63.68 -9 63 C-7.0625 62.4375 -7.0625 62.4375 -5 62 C-4.34 61.67 -3.68 61.34 -3 61 C-3.33 60.34 -3.66 59.68 -4 59 C-3.67 58.34 -3.34 57.68 -3 57 C-20.68469198 56.35503232 -38.36725557 55.7197121 -56.0625 56.25 C-57.21911133 56.27634521 -58.37572266 56.30269043 -59.56738281 56.32983398 C-61.16018066 56.39086304 -61.16018066 56.39086304 -62.78515625 56.453125 C-63.70176025 56.48567383 -64.61836426 56.51822266 -65.56274414 56.55175781 C-68.41071554 57.07553578 -69.76553091 58.21915849 -72 60 C-74.25 59.6875 -74.25 59.6875 -76 59 C-75.67 57.68 -75.34 56.36 -75 55 C-75.61875 54.79375 -76.2375 54.5875 -76.875 54.375 C-79 53 -79 53 -80.375 50.1875 C-81.08561218 46.56337787 -81.02455392 45.08084292 -79 42 C-76.375 41.1875 -76.375 41.1875 -74 41 C-74 40.34 -74 39.68 -74 39 C-72.68 39 -71.36 39 -70 39 C-69.505 38.01 -69.505 38.01 -69 37 C-69 37.99 -69 38.98 -69 40 C-68.14728516 39.89171875 -68.14728516 39.89171875 -67.27734375 39.78125 C-62.48397086 39.20508498 -57.83687566 38.9051593 -53 39 C-49.2236068 39.2981424 -49.2236068 39.2981424 -47 38 C-45.3146804 37.90465746 -43.62550734 37.87014242 -41.9375 37.875 C-40.58978516 37.87113281 -40.58978516 37.87113281 -39.21484375 37.8671875 C-37 38 -37 38 -36 39 C-33.85605481 39.0991757 -31.70873268 39.1297015 -29.5625 39.125 C-28.38816406 39.12757812 -27.21382812 39.13015625 -26.00390625 39.1328125 C-23.0759191 39.20765546 -23.0759191 39.20765546 -21 38 C-19.22212157 37.90344548 -17.44065344 37.86924537 -15.66015625 37.8671875 C-14.59732422 37.86589844 -13.53449219 37.86460938 -12.43945312 37.86328125 C-11.32505859 37.86714844 -10.21066406 37.87101562 -9.0625 37.875 C-7.95197266 37.87113281 -6.84144531 37.86726563 -5.69726562 37.86328125 C-4.10108398 37.86521484 -4.10108398 37.86521484 -2.47265625 37.8671875 C-1.00711304 37.86887939 -1.00711304 37.86887939 0.48803711 37.87060547 C3 38 3 38 6 39 C7.99673484 39.35236497 9.99650739 39.68834559 12 40 C12 39.34 12 38.68 12 38 C14.97 38.99 14.97 38.99 18 40 C18.33 39.34 18.66 38.68 19 38 C19.99 37.67 20.98 37.34 22 37 C22 36.34 22 35.68 22 35 C21.34 34.67 20.68 34.34 20 34 C20.33 32.68 20.66 31.36 21 30 C19.69289062 30.26103516 19.69289062 30.26103516 18.359375 30.52734375 C12.35095023 31.37818712 6.28916989 30.82682034 0.25 30.5625 C-8.63660496 30.2033486 -17.50771614 29.95272054 -26.40234375 30 C-27.17963837 30.00378159 -27.95693298 30.00756317 -28.75778198 30.01145935 C-32.52930653 30.03353016 -36.30009855 30.07091019 -40.07128906 30.12524414 C-48.250214 30.21037386 -55.98395355 29.70089383 -64 28 C-64 27.01 -64 26.02 -64 25 C-65.32 25.33 -66.64 25.66 -68 26 C-67.835 25.071875 -67.67 24.14375 -67.5 23.1875 C-66.92251612 20.04378647 -66.92251612 20.04378647 -67 17 C-66.34 17.33 -65.68 17.66 -65 18 C-64.67 16.35 -64.34 14.7 -64 13 C-60.26513121 12.4254048 -56.78706732 12 -53 12 C-50.96207575 11.99513935 -48.92415266 11.98978824 -46.88623047 11.98413086 C-40.76539339 11.96812786 -34.64456239 11.95655348 -28.52371025 11.94818783 C-24.82259828 11.94295145 -21.12150905 11.935832 -17.42041016 11.92456055 C-13.83669943 11.91371883 -10.25301068 11.90772125 -6.66928482 11.90512276 C-5.30330177 11.9032729 -3.93731995 11.89966069 -2.57134628 11.89426994 C-0.66590295 11.88704124 1.23956249 11.88659179 3.14501953 11.88647461 C4.77239548 11.88314369 4.77239548 11.88314369 6.43264771 11.87974548 C9 12 9 12 11 13 C11.33 10.36 11.66 7.72 12 5 C9.36 4.67 6.72 4.34 4 4 C4 3.34 4 2.68 4 2 C2.02 1.01 2.02 1.01 0 0 Z M-6 60 C-5.01 60.495 -5.01 60.495 -4 61 C-4.99 61.495 -4.99 61.495 -6 62 C-6 61.34 -6 60.68 -6 60 Z " fill="#584778" transform="translate(228,52)"/>
<path d="M0 0 C2 3 2 3 1.875 5.5 C0.83133 8.48191427 -0.34828366 9.3747545 -3 11 C-3.99 10.505 -3.99 10.505 -5 10 C-5 10.66 -5 11.32 -5 12 C-6.65614657 12.38218767 -8.32457024 12.71395102 -10 13 C-10.33 12.67 -10.66 12.34 -11 12 C-11.52980469 12.31453125 -12.05960938 12.6290625 -12.60546875 12.953125 C-19.51236638 15.97278008 -28.0684867 15.71233129 -35 13 C-35.99 12.67 -36.98 12.34 -38 12 C-38 12.66 -38 13.32 -38 14 C-64.96717205 16.29681735 -92.12195867 16.15971911 -119.17068481 16.28610229 C-122.39125635 16.30170899 -125.61155726 16.32657503 -128.83200073 16.35916138 C-132.68276392 16.39739522 -136.53313054 16.41561614 -140.38407707 16.41901398 C-141.82600621 16.42349333 -143.2679318 16.43483212 -144.70974922 16.45333099 C-146.70349496 16.47759622 -148.69751786 16.474436 -150.69140625 16.4699707 C-151.81748291 16.47583694 -152.94355957 16.48170319 -154.10375977 16.48774719 C-157.66714424 15.88764822 -158.83964302 14.8481552 -161 12 C-161.58366387 8.49801678 -161.54260255 6.79757655 -159.5324707 3.84286499 C-155.78358964 1.11482487 -152.50825263 1.45487135 -147.98046875 1.51416016 C-147.06947418 1.51036346 -146.15847961 1.50656677 -145.21987915 1.50265503 C-142.2087358 1.49524598 -139.19855759 1.51663716 -136.1875 1.5390625 C-134.09529738 1.54144682 -132.00309259 1.54235227 -129.91088867 1.5418396 C-125.52606808 1.54496823 -121.14157432 1.56153851 -116.75683594 1.58837891 C-111.13430481 1.62235867 -105.51213289 1.63000749 -99.88951111 1.62848854 C-95.56926032 1.62903223 -91.24908817 1.63999924 -86.92886353 1.65449142 C-84.85560705 1.66085888 -82.78234165 1.6647982 -80.70907593 1.66627884 C-77.81240646 1.67061235 -74.91611876 1.68811465 -72.01953125 1.70947266 C-70.73207504 1.7081131 -70.73207504 1.7081131 -69.41860962 1.70672607 C-68.62796112 1.71525604 -67.83731262 1.72378601 -67.02270508 1.73257446 C-66.3383992 1.73592615 -65.65409332 1.73927784 -64.9490509 1.74273109 C-62.64464303 2.04690606 -61.04478859 2.92265808 -59 4 C-56.6062833 4.29367279 -56.6062833 4.29367279 -54.01953125 4.24291992 C-53.03170654 4.24599655 -52.04388184 4.24907318 -51.02612305 4.25224304 C-49.96562744 4.24505753 -48.90513184 4.23787201 -47.8125 4.23046875 C-46.71784424 4.23001053 -45.62318848 4.22955231 -44.49536133 4.2290802 C-42.18211787 4.22606065 -39.8688764 4.21818324 -37.55566406 4.20581055 C-34.01359863 4.18757003 -30.47179497 4.18530083 -26.9296875 4.18554688 C-24.68228941 4.18063084 -22.43489308 4.17480215 -20.1875 4.16796875 C-19.12700439 4.16685593 -18.06650879 4.1657431 -16.97387695 4.16459656 C-15.98605225 4.15821671 -14.99822754 4.15183685 -13.98046875 4.14526367 C-13.11317139 4.14145187 -12.24587402 4.13764008 -11.35229492 4.13371277 C-9.07382004 4.00419619 -7.15303561 3.75724315 -5 3 C-4.67 2.34 -4.34 1.68 -4 1 C-1.9375 0.375 -1.9375 0.375 0 0 Z " fill="#823F7C" transform="translate(207,157)"/>
<path d="M0 0 C4.4997193 3.85690226 7.40402432 7.36711716 8.625 13.25 C8.71859497 19.62485747 7.88161883 24.28394469 3.625 29.25 C-1.85753761 34.19765589 -6.17507162 34.60066356 -13.359375 34.53125 C-18.83042783 34.02099637 -21.85442251 31.81167418 -25.6875 27.875 C-29.21127712 22.39356893 -29.72925012 18.00506564 -28.91796875 11.6484375 C-28.13696612 8.19854098 -26.62355844 5.94827013 -24.375 3.25 C-23.776875 2.5075 -23.17875 1.765 -22.5625 1 C-16.03790108 -4.21967913 -7.10521927 -3.68418777 0 0 Z " fill="#D42469" transform="translate(187.375,177.75)"/>
<path d="M0 0 C4.22568444 2.95953267 7.19112856 5.75052764 8.6875 10.80078125 C9.29465567 16.38046502 9.48903145 21.10523395 7.0625 26.23828125 C3.04178145 30.57642495 -0.59630012 34.49741799 -6.80078125 35.00390625 C-16.64286766 35.16726038 -16.64286766 35.16726038 -21.3125 31.80078125 C-25.88222444 27.24183446 -28.4275384 23.73344132 -28.625 17.11328125 C-28.54871512 10.58138819 -26.53491312 6.08325959 -22 1.42578125 C-15.19639178 -2.68802837 -7.20977097 -3.73885082 0 0 Z " fill="#D42469" transform="translate(84.3125,177.19921875)"/>
<path d="M0 0 C1.05134125 -0.01283524 2.1026825 -0.02567047 3.18588257 -0.03889465 C4.90298935 -0.04997505 4.90298935 -0.04997505 6.65478516 -0.0612793 C7.82264557 -0.06935104 8.99050598 -0.07742279 10.1937561 -0.08573914 C12.67033392 -0.09959884 15.146931 -0.11031251 17.62353516 -0.11816406 C21.42077585 -0.13539336 25.21715003 -0.17926605 29.01416016 -0.22338867 C31.41519539 -0.23351341 33.81623806 -0.2420302 36.21728516 -0.2487793 C37.35797455 -0.26628738 38.49866394 -0.28379547 39.67391968 -0.30183411 C40.73156525 -0.29890854 41.78921082 -0.29598297 42.87890625 -0.29296875 C43.81076752 -0.29883499 44.74262878 -0.30470123 45.70272827 -0.31074524 C48.06884766 0.17700195 48.06884766 0.17700195 49.89712524 1.98371887 C51.69029979 5.3402642 51.04771371 7.58782643 50.06884766 11.17700195 C48.28556332 13.21115213 46.85733969 14.07165681 44.16223145 14.43173218 C41.74488764 14.52523622 39.34698669 14.51380955 36.92822266 14.4699707 C36.04604065 14.46572586 35.16385864 14.46148102 34.25494385 14.45710754 C31.44259882 14.44034034 28.63097539 14.40269194 25.81884766 14.36450195 C23.91000385 14.34945257 22.0011488 14.33576461 20.09228516 14.32348633 C15.41752876 14.29044323 10.74331048 14.2386745 6.06884766 14.17700195 C5.86388672 15.30879883 5.65892578 16.4405957 5.44775391 17.60668945 C5.17577794 19.08848956 4.90363379 20.57025881 4.63134766 22.05200195 C4.49664062 22.79836914 4.36193359 23.54473633 4.22314453 24.3137207 C3.18212891 29.95043945 3.18212891 29.95043945 2.06884766 32.17700195 C3.01759766 32.13575195 3.96634766 32.09450195 4.94384766 32.05200195 C8.06884766 32.17700195 8.06884766 32.17700195 10.06884766 34.17700195 C8.06884766 36.17700195 8.06884766 36.17700195 5.68603516 36.37231445 C4.32865234 36.33750977 4.32865234 36.33750977 2.94384766 36.30200195 C2.03376953 36.28395508 1.12369141 36.2659082 0.18603516 36.24731445 C-0.51263672 36.22411133 -1.21130859 36.2009082 -1.93115234 36.17700195 C-1.60115234 34.52700195 -1.27115234 32.87700195 -0.93115234 31.17700195 C-1.59115234 30.84700195 -2.25115234 30.51700195 -2.93115234 30.17700195 C-2.27115234 28.85700195 -1.61115234 27.53700195 -0.93115234 26.17700195 C-0.27115234 26.17700195 0.38884766 26.17700195 1.06884766 26.17700195 C1.06884766 21.88700195 1.06884766 17.59700195 1.06884766 13.17700195 C-0.93115234 16.94129969 -0.93115234 16.94129969 -1.93115234 20.17700195 C-2.59115234 20.17700195 -3.25115234 20.17700195 -3.93115234 20.17700195 C-5.92979603 25.10698972 -7.00837545 27.92553931 -5.93115234 33.17700195 C-6.26115234 33.83700195 -6.59115234 34.49700195 -6.93115234 35.17700195 C-7.69427734 35.15637695 -8.45740234 35.13575195 -9.24365234 35.11450195 C-12.0330102 35.04757355 -12.0330102 35.04757355 -14.93115234 36.17700195 C-14.60115234 34.85700195 -14.27115234 33.53700195 -13.93115234 32.17700195 C-13.27115234 32.17700195 -12.61115234 32.17700195 -11.93115234 32.17700195 C-11.81771484 31.10321289 -11.70427734 30.02942383 -11.58740234 28.9230957 C-10.8821673 23.2899066 -9.65000942 17.78007797 -8.43115234 12.23950195 C-8.20556641 11.18698242 -7.97998047 10.13446289 -7.74755859 9.05004883 C-7.52970703 8.05166992 -7.31185547 7.05329102 -7.08740234 6.0246582 C-6.88953125 5.11723877 -6.69166016 4.20981934 -6.48779297 3.27490234 C-5.45632759 -0.6125459 -3.72939947 0.03946487 0 0 Z " fill="#2D5997" transform="translate(214.93115234375,19.822998046875)"/>
<path d="M0 0 C9.48421053 -0.55789474 9.48421053 -0.55789474 14 3 C16 5 16 5 16.375 7.875 C16 11 16 11 14.39685059 13.16416931 C11.21209708 15.60348207 9.26432679 15.49884116 5.27539062 15.49829102 C4.60823532 15.50380981 3.94108002 15.50932861 3.25370789 15.51501465 C1.80944254 15.52431964 0.36509513 15.52445211 -1.07917786 15.51642036 C-3.36614925 15.50378247 -5.6519151 15.51508506 -7.93884277 15.53245544 C-11.96839506 15.55915377 -15.99765154 15.56475121 -20.02728271 15.56335449 C-26.47692042 15.5611257 -32.92619226 15.57523614 -39.37568665 15.61894035 C-41.62707753 15.62877877 -43.87789341 15.62006215 -46.12927246 15.61024475 C-47.51131568 15.61638928 -48.89335577 15.62330113 -50.27539062 15.63110352 C-51.48022095 15.63014175 -52.68505127 15.62917999 -53.9263916 15.62818909 C-57.26026073 16.03148344 -58.66735761 16.61795792 -61 19 C-61.50014953 21.54258463 -61.50014953 21.54258463 -61 24 C-58.48935235 26.51064765 -56.96474061 26.24129643 -53.53941345 26.26786804 C-52.39781517 26.26168205 -52.39781517 26.26168205 -51.2331543 26.25537109 C-50.43134735 26.25899155 -49.62954041 26.262612 -48.80343628 26.26634216 C-47.05900398 26.27324538 -45.31455004 26.27573987 -43.5701046 26.27439499 C-40.80861618 26.27343206 -38.04751951 26.28634468 -35.28608704 26.30337524 C-27.43367577 26.34971504 -19.58130297 26.37425112 -11.72875977 26.38085938 C-6.92819693 26.38587403 -2.12804084 26.41012461 2.67238426 26.44618607 C4.50197088 26.45598815 6.33161344 26.45831378 8.16121864 26.45301437 C10.72291109 26.44594418 13.28339266 26.46322518 15.8449707 26.48583984 C16.59996353 26.47766739 17.35495636 26.46949493 18.13282776 26.46107483 C21.74449367 26.51775471 23.86525928 26.91785709 26.97453308 28.81338501 C29 31 29 31 29.5625 34.5 C28.90496022 38.59135864 28.25442669 39.53686658 25 42 C21.88378906 42.45410156 21.88378906 42.45410156 18.265625 42.390625 C16.97011719 42.37773438 15.67460937 42.36484375 14.33984375 42.3515625 C12.97655176 42.31814366 11.61327051 42.28428391 10.25 42.25 C8.87111936 42.22992707 7.49221088 42.21167767 6.11328125 42.1953125 C2.74148256 42.14815448 -0.62890687 42.08234538 -4 42 C-4 41.34 -4 40.68 -4 40 C-10.27 40 -16.54 40 -23 40 C-21 38 -21 38 -18.61743164 37.75708008 C-17.15358032 37.76324341 -17.15358032 37.76324341 -15.66015625 37.76953125 C-14.59732422 37.77146484 -13.53449219 37.77339844 -12.43945312 37.77539062 C-10.76786133 37.79375977 -10.76786133 37.79375977 -9.0625 37.8125 C-7.95197266 37.81314453 -6.84144531 37.81378906 -5.69726562 37.81445312 C2.57870228 37.85956743 2.57870228 37.85956743 6 39 C7.99673484 39.35236497 9.99650739 39.68834559 12 40 C12 39.34 12 38.68 12 38 C13.98 38.66 15.96 39.32 18 40 C18.495 39.01 18.495 39.01 19 38 C19.99 37.67 20.98 37.34 22 37 C22 36.34 22 35.68 22 35 C21.34 34.67 20.68 34.34 20 34 C20.33 32.68 20.66 31.36 21 30 C20.12859375 30.17402344 19.2571875 30.34804687 18.359375 30.52734375 C12.35095023 31.37818712 6.28916989 30.82682034 0.25 30.5625 C-8.63660496 30.2033486 -17.50771614 29.95272054 -26.40234375 30 C-27.17963837 30.00378159 -27.95693298 30.00756317 -28.75778198 30.01145935 C-32.52930653 30.03353016 -36.30009855 30.07091019 -40.07128906 30.12524414 C-48.250214 30.21037386 -55.98395355 29.70089383 -64 28 C-64 27.01 -64 26.02 -64 25 C-65.32 25.33 -66.64 25.66 -68 26 C-67.835 25.071875 -67.67 24.14375 -67.5 23.1875 C-66.92251612 20.04378647 -66.92251612 20.04378647 -67 17 C-66.34 17.33 -65.68 17.66 -65 18 C-64.67 16.35 -64.34 14.7 -64 13 C-60.26513121 12.4254048 -56.78706732 12 -53 12 C-50.96207575 11.99513935 -48.92415266 11.98978824 -46.88623047 11.98413086 C-40.76539339 11.96812786 -34.64456239 11.95655348 -28.52371025 11.94818783 C-24.82259828 11.94295145 -21.12150905 11.935832 -17.42041016 11.92456055 C-13.83669943 11.91371883 -10.25301068 11.90772125 -6.66928482 11.90512276 C-5.30330177 11.9032729 -3.93731995 11.89966069 -2.57134628 11.89426994 C-0.66590295 11.88704124 1.23956249 11.88659179 3.14501953 11.88647461 C4.77239548 11.88314369 4.77239548 11.88314369 6.43264771 11.87974548 C9 12 9 12 11 13 C11.33 10.36 11.66 7.72 12 5 C9.36 4.67 6.72 4.34 4 4 C4 3.34 4 2.68 4 2 C2.68 1.34 1.36 0.68 0 0 Z " fill="#564B74" transform="translate(228,52)"/>
<path d="M0 0 C1.28785652 0.00424484 1.28785652 0.00424484 2.60173035 0.00857544 C5.3322875 0.0197318 8.06251145 0.04482791 10.79296875 0.0703125 C12.64908379 0.08034818 14.50520399 0.089473 16.36132812 0.09765625 C20.90116921 0.11965624 25.44076256 0.15415469 29.98046875 0.1953125 C30.47546875 1.1853125 30.47546875 1.1853125 30.98046875 2.1953125 C29.92134277 2.16912842 28.8622168 2.14294434 27.77099609 2.1159668 C23.8239472 2.02514698 19.87698975 1.96794908 15.92919922 1.9206543 C14.22396286 1.89558205 12.51883321 1.86151486 10.81396484 1.81811523 C8.35617701 1.75713684 5.89981514 1.72903138 3.44140625 1.70703125 C2.68491791 1.68122482 1.92842957 1.6554184 1.14901733 1.62882996 C-2.97165254 1.62666946 -5.32375545 2.05282088 -8.54833984 4.72583008 C-9.36383301 5.54075928 -10.17932617 6.35568848 -11.01953125 7.1953125 C-10.68953125 8.1853125 -10.35953125 9.1753125 -10.01953125 10.1953125 C-9.35953125 10.5253125 -8.69953125 10.8553125 -8.01953125 11.1953125 C-7.5371035 13.94395951 -7.1754684 16.61258797 -6.89453125 19.3828125 C-6.80816406 20.13884766 -6.72179688 20.89488281 -6.6328125 21.67382812 C-6.17448901 25.86785181 -5.9251811 29.96977356 -6.01953125 34.1953125 C-5.02953125 34.5253125 -4.03953125 34.8553125 -3.01953125 35.1953125 C-1.26953125 36.3828125 -1.26953125 36.3828125 -0.01953125 38.1953125 C-0.2997358 40.2034451 -0.64360059 42.20288 -1.01953125 44.1953125 C-0.86876954 46.89287021 -0.45384915 49.53042367 -0.01953125 52.1953125 C0.12484375 53.2059375 0.26921875 54.2165625 0.41796875 55.2578125 C1.49669674 61.812084 1.49669674 61.812084 4.98046875 67.1953125 C5.97046875 66.7003125 5.97046875 66.7003125 6.98046875 66.1953125 C7.02288598 68.52826025 7.02139812 70.86233817 6.98046875 73.1953125 C6.65046875 73.5253125 6.32046875 73.8553125 5.98046875 74.1953125 C6.64046875 74.8553125 7.30046875 75.5153125 7.98046875 76.1953125 C6.66046875 76.1953125 5.34046875 76.1953125 3.98046875 76.1953125 C3.98046875 76.8553125 3.98046875 77.5153125 3.98046875 78.1953125 C5.96046875 77.7003125 5.96046875 77.7003125 7.98046875 77.1953125 C7.98046875 79.1753125 7.98046875 81.1553125 7.98046875 83.1953125 C9.96046875 83.5253125 11.94046875 83.8553125 13.98046875 84.1953125 C14.31046875 85.8453125 14.64046875 87.4953125 14.98046875 89.1953125 C15.75132813 89.17210937 16.5221875 89.14890625 17.31640625 89.125 C18.82074219 89.09792969 18.82074219 89.09792969 20.35546875 89.0703125 C21.35320312 89.04710937 22.3509375 89.02390625 23.37890625 89 C25.98046875 89.1953125 25.98046875 89.1953125 27.98046875 91.1953125 C11.01028525 92.2261223 11.01028525 92.2261223 6.66796875 89.0078125 C0.02209724 80.90692905 -1.22187389 67.60625525 -3.47265625 57.64453125 C-3.78063743 56.29217885 -4.08880794 54.93986956 -4.39715576 53.58760071 C-5.03582267 50.78077305 -5.6705687 47.9730936 -6.30273438 45.16479492 C-7.10928694 41.58440109 -7.92836506 38.00700033 -8.75065994 34.4301939 C-9.38805354 31.64928779 -10.01749576 28.86662583 -10.64473724 26.08341408 C-11.0872208 24.12814397 -11.53732454 22.17460328 -11.98760986 20.22111511 C-13.35809965 14.07690745 -14.3867519 8.49353944 -14.01953125 2.1953125 C-9.34216943 -0.19084384 -5.11786771 -0.06386003 0 0 Z " fill="#B63069" transform="translate(48.01953125,53.8046875)"/>
<path d="M0 0 C5.18011775 1.37120764 8.35402948 4.45928087 11 9 C12.86752773 15.43832763 12.14421769 20.19529043 9 26 C8.67 26.66 8.34 27.32 8 28 C7.34 27.67 6.68 27.34 6 27 C5.375 24.9375 5.375 24.9375 5 23 C2.37815904 23.44945845 0.08551088 23.96302246 -2.36314392 25.02189636 C-5.10774795 26.03996754 -7.09019597 26.25882374 -10.00219727 26.2746582 C-10.96992569 26.28419022 -11.93765411 26.29372223 -12.93470764 26.30354309 C-13.96816818 26.30263168 -15.00162872 26.30172028 -16.06640625 26.30078125 C-17.13745102 26.30506638 -18.20849579 26.3093515 -19.31199646 26.31376648 C-21.57216689 26.31950047 -23.83235577 26.32001691 -26.0925293 26.31567383 C-29.55354117 26.31250819 -33.01370277 26.33600502 -36.47460938 26.36132812 C-38.67187392 26.3636006 -40.86914077 26.36430485 -43.06640625 26.36328125 C-44.61963341 26.37709587 -44.61963341 26.37709587 -46.20423889 26.39118958 C-47.16881516 26.38496078 -48.13339142 26.37873199 -49.12719727 26.37231445 C-49.97371353 26.37294388 -50.8202298 26.3735733 -51.69239807 26.3742218 C-54.48759207 25.92092762 -55.88853575 24.83907732 -58 23 C-57.0140107 22.99120064 -57.0140107 22.99120064 -56.00810242 22.98222351 C-49.17869902 22.91838697 -42.34977113 22.83399271 -35.52075195 22.73754883 C-32.97068544 22.7042539 -30.42054441 22.67623637 -27.87036133 22.65356445 C-24.20882351 22.620103 -20.54797136 22.56779019 -16.88671875 22.51171875 C-15.7428923 22.50532883 -14.59906586 22.4989389 -13.420578 22.49235535 C-12.35970474 22.47256119 -11.29883148 22.45276703 -10.20581055 22.43237305 C-9.27093307 22.42126999 -8.3360556 22.41016693 -7.37284851 22.39872742 C-4.9597954 22.17164337 -4.9597954 22.17164337 -3.18635559 20.70344543 C-1.27392936 17.95746122 -1.81693739 15.23410614 -2 12 C-5.95646586 10.72276155 -9.97587306 10.79310369 -14.08984375 10.71875 C-14.87138321 10.70034058 -15.65292267 10.68193115 -16.45814514 10.66296387 C-18.9511889 10.60436659 -21.44430005 10.55149549 -23.9375 10.5 C-27.21758487 10.43210773 -30.49746539 10.35841417 -33.77734375 10.28125 C-34.90099586 10.26088684 -34.90099586 10.26088684 -36.04734802 10.2401123 C-39.80725398 10.15126423 -43.3405804 9.88887685 -47 9 C-47 8.67 -47 8.34 -47 8 C-45.68281982 8.01047363 -44.36563965 8.02094727 -43.00854492 8.03173828 C-38.12771313 8.06790283 -33.24689321 8.09088759 -28.3659668 8.10986328 C-26.25233978 8.11992894 -24.1387267 8.13358257 -22.02514648 8.15087891 C-18.98938558 8.1751023 -15.95380857 8.18647738 -12.91796875 8.1953125 C-11.97100632 8.20563507 -11.02404388 8.21595764 -10.04838562 8.22659302 C-8.72735588 8.22681961 -8.72735588 8.22681961 -7.37963867 8.22705078 C-6.21714851 8.23371262 -6.21714851 8.23371262 -5.03117371 8.24050903 C-2.68688455 8.11843265 -2.68688455 8.11843265 0 6 C-0.66 5.67 -1.32 5.34 -2 5 C-1.34 3.35 -0.68 1.7 0 0 Z " fill="#465191" transform="translate(202,136)"/>
<path d="M0 0 C1.05134125 -0.01283524 2.1026825 -0.02567047 3.18588257 -0.03889465 C4.90298935 -0.04997505 4.90298935 -0.04997505 6.65478516 -0.0612793 C7.82264557 -0.06935104 8.99050598 -0.07742279 10.1937561 -0.08573914 C12.67033392 -0.09959884 15.146931 -0.11031251 17.62353516 -0.11816406 C21.42077585 -0.13539336 25.21715003 -0.17926605 29.01416016 -0.22338867 C31.41519539 -0.23351341 33.81623806 -0.2420302 36.21728516 -0.2487793 C37.35797455 -0.26628738 38.49866394 -0.28379547 39.67391968 -0.30183411 C40.73156525 -0.29890854 41.78921082 -0.29598297 42.87890625 -0.29296875 C43.81076752 -0.29883499 44.74262878 -0.30470123 45.70272827 -0.31074524 C48.06884766 0.17700195 48.06884766 0.17700195 49.89712524 1.98371887 C51.69029979 5.3402642 51.04771371 7.58782643 50.06884766 11.17700195 C48.28556332 13.21115213 46.85733969 14.07165681 44.16223145 14.43173218 C41.74488764 14.52523622 39.34698669 14.51380955 36.92822266 14.4699707 C36.04604065 14.46572586 35.16385864 14.46148102 34.25494385 14.45710754 C31.44259882 14.44034034 28.63097539 14.40269194 25.81884766 14.36450195 C23.91000385 14.34945257 22.0011488 14.33576461 20.09228516 14.32348633 C15.41752876 14.29044323 10.74331048 14.2386745 6.06884766 14.17700195 C5.86388672 15.30879883 5.65892578 16.4405957 5.44775391 17.60668945 C5.17577794 19.08848956 4.90363379 20.57025881 4.63134766 22.05200195 C4.49664062 22.79836914 4.36193359 23.54473633 4.22314453 24.3137207 C3.18212891 29.95043945 3.18212891 29.95043945 2.06884766 32.17700195 C3.01759766 32.13575195 3.96634766 32.09450195 4.94384766 32.05200195 C8.06884766 32.17700195 8.06884766 32.17700195 10.06884766 34.17700195 C8.06884766 36.17700195 8.06884766 36.17700195 5.68603516 36.37231445 C4.32865234 36.33750977 4.32865234 36.33750977 2.94384766 36.30200195 C2.03376953 36.28395508 1.12369141 36.2659082 0.18603516 36.24731445 C-0.51263672 36.22411133 -1.21130859 36.2009082 -1.93115234 36.17700195 C-1.60115234 34.52700195 -1.27115234 32.87700195 -0.93115234 31.17700195 C-1.59115234 30.84700195 -2.25115234 30.51700195 -2.93115234 30.17700195 C-2.11865234 28.23950195 -2.11865234 28.23950195 -0.93115234 26.17700195 C0.05884766 25.84700195 1.04884766 25.51700195 2.06884766 25.17700195 C2.72884766 21.21700195 3.38884766 17.25700195 4.06884766 13.17700195 C9.59827581 12.3905823 14.92611764 12.03958113 20.50634766 12.0793457 C21.27188965 12.08076065 22.03743164 12.0821756 22.82617188 12.08363342 C25.24043908 12.08917342 27.65460909 12.10171416 30.06884766 12.11450195 C31.71858589 12.11952473 33.36832559 12.12408626 35.01806641 12.12817383 C39.0350302 12.13912309 43.05192253 12.1563453 47.06884766 12.17700195 C47.06884766 11.51700195 47.06884766 10.85700195 47.06884766 10.17700195 C47.72884766 10.17700195 48.38884766 10.17700195 49.06884766 10.17700195 C48.81323442 7.83388065 48.47613993 5.49856792 48.06884766 3.17700195 C44.92100893 1.60308259 41.5513491 2.03511541 38.09619141 2.04418945 C37.2991127 2.04323273 36.502034 2.042276 35.68080139 2.04129028 C33.98861614 2.04060879 32.29642829 2.04246095 30.60424805 2.04663086 C28.04095395 2.05193041 25.47783905 2.04671058 22.91455078 2.0402832 C21.26676394 2.04094495 19.61897721 2.04222811 17.97119141 2.04418945 C16.83628517 2.04115311 16.83628517 2.04115311 15.67845154 2.03805542 C11.04041739 2.05798342 6.52264842 2.38669147 1.91993713 2.96292114 C0.06884766 3.17700195 0.06884766 3.17700195 -1.93115234 3.17700195 C-1.93115234 4.82700195 -1.93115234 6.47700195 -1.93115234 8.17700195 C-0.61115234 8.83700195 0.70884766 9.49700195 2.06884766 10.17700195 C1.32014974 11.90226237 0.57145182 13.62752279 -0.17724609 15.3527832 C-0.83077177 16.93411216 -1.39007037 18.55375602 -1.93115234 20.17700195 C-2.59115234 20.17700195 -3.25115234 20.17700195 -3.93115234 20.17700195 C-5.92979603 25.10698972 -7.00837545 27.92553931 -5.93115234 33.17700195 C-6.26115234 33.83700195 -6.59115234 34.49700195 -6.93115234 35.17700195 C-7.69427734 35.15637695 -8.45740234 35.13575195 -9.24365234 35.11450195 C-12.0330102 35.04757355 -12.0330102 35.04757355 -14.93115234 36.17700195 C-14.60115234 34.85700195 -14.27115234 33.53700195 -13.93115234 32.17700195 C-13.27115234 32.17700195 -12.61115234 32.17700195 -11.93115234 32.17700195 C-11.81771484 31.10321289 -11.70427734 30.02942383 -11.58740234 28.9230957 C-10.8821673 23.2899066 -9.65000942 17.78007797 -8.43115234 12.23950195 C-8.20556641 11.18698242 -7.97998047 10.13446289 -7.74755859 9.05004883 C-7.52970703 8.05166992 -7.31185547 7.05329102 -7.08740234 6.0246582 C-6.88953125 5.11723877 -6.69166016 4.20981934 -6.48779297 3.27490234 C-5.45632759 -0.6125459 -3.72939947 0.03946487 0 0 Z " fill="#2C4C77" transform="translate(214.93115234375,19.822998046875)"/>
<path d="M0 0 C5.07198888 -0.07413521 10.14366268 -0.12859451 15.21606445 -0.16479492 C16.94170627 -0.17988516 18.66730972 -0.20035975 20.39282227 -0.22631836 C22.87265488 -0.26269209 25.35198064 -0.27972359 27.83203125 -0.29296875 C28.60400345 -0.30845261 29.37597565 -0.32393646 30.17134094 -0.33988953 C35.48033625 -0.34155913 35.48033625 -0.34155913 37.9831543 1.3034668 C39.74581391 4.24433634 39.40787676 6.67871778 39 10 C37.39355469 12.19824219 37.39355469 12.19824219 35 14 C31.88378906 14.45410156 31.88378906 14.45410156 28.265625 14.390625 C26.97011719 14.37773438 25.67460937 14.36484375 24.33984375 14.3515625 C22.97655176 14.31814366 21.61327051 14.28428391 20.25 14.25 C18.87111936 14.22992707 17.49221088 14.21167767 16.11328125 14.1953125 C12.74148256 14.14815448 9.37109313 14.08234538 6 14 C6 13.34 6 12.68 6 12 C-0.27 12 -6.54 12 -13 12 C-11 10 -11 10 -8.61743164 9.75708008 C-7.15358032 9.76324341 -7.15358032 9.76324341 -5.66015625 9.76953125 C-4.59732422 9.77146484 -3.53449219 9.77339844 -2.43945312 9.77539062 C-0.76786133 9.79375977 -0.76786133 9.79375977 0.9375 9.8125 C2.04802734 9.81314453 3.15855469 9.81378906 4.30273438 9.81445312 C12.57870228 9.85956743 12.57870228 9.85956743 16 11 C17.99673484 11.35236497 19.99650739 11.68834559 22 12 C22 11.34 22 10.68 22 10 C23.98 10.66 25.96 11.32 28 12 C28.33 11.34 28.66 10.68 29 10 C29.99 9.67 30.98 9.34 32 9 C32 8.34 32 7.68 32 7 C31.34 6.67 30.68 6.34 30 6 C30.33 4.68 30.66 3.36 31 2 C30.07832031 2.17144531 29.15664062 2.34289062 28.20703125 2.51953125 C23.02781239 3.25643849 17.89607477 2.93715591 12.6875 2.6875 C11.68654297 2.65205078 10.68558594 2.61660156 9.65429688 2.58007812 C8.69974609 2.53689453 7.74519531 2.49371094 6.76171875 2.44921875 C5.89506592 2.41143311 5.02841309 2.37364746 4.13549805 2.3347168 C2 2 2 2 0 0 Z " fill="#325181" transform="translate(218,80)"/>
<path d="M0 0 C4.4997193 3.85690226 7.40402432 7.36711716 8.625 13.25 C8.71859497 19.62485747 7.88161883 24.28394469 3.625 29.25 C-1.85753761 34.19765589 -6.17507162 34.60066356 -13.359375 34.53125 C-18.83042783 34.02099637 -21.85442251 31.81167418 -25.6875 27.875 C-29.21127712 22.39356893 -29.72925012 18.00506564 -28.91796875 11.6484375 C-28.13696612 8.19854098 -26.62355844 5.94827013 -24.375 3.25 C-23.776875 2.5075 -23.17875 1.765 -22.5625 1 C-16.03790108 -4.21967913 -7.10521927 -3.68418777 0 0 Z M-12.19140625 0.1796875 C-17.00076284 0.29746766 -20.54092731 0.65326089 -24.0625 4.125 C-27.3662823 8.73315744 -27.20910276 13.81229165 -26.375 19.25 C-25.4631329 21.88956444 -25.4631329 21.88956444 -24.375 24.25 C-23.818125 25.549375 -23.818125 25.549375 -23.25 26.875 C-20.54742242 30.29826493 -17.57178503 31.3140798 -13.375 32.25 C-10.64827199 32.46295329 -8.11673823 32.39687883 -5.375 32.25 C-5.375 31.59 -5.375 30.93 -5.375 30.25 C-4.385 30.58 -3.395 30.91 -2.375 31.25 C1.31877253 29.43190706 4.00446674 26.73127294 5.59375 22.9375 C6.97299935 17.13013432 6.90519963 11.8079866 4.625 6.25 C2.59770488 3.3012071 1.17388581 1.6925388 -2.31640625 0.6953125 C-5.60915058 0.21229813 -8.86986515 0.26261086 -12.19140625 0.1796875 Z " fill="#A82E5E" transform="translate(187.375,177.75)"/>
<path d="M0 0 C-0.33 0.99 -0.66 1.98 -1 3 C-1.33 2.67 -1.66 2.34 -2 2 C-5.76402762 1.74702401 -9.54098037 1.81477063 -13.3125 1.8125 C-14.37146484 1.80025391 -15.43042969 1.78800781 -16.52148438 1.77539062 C-18.05192383 1.77249023 -18.05192383 1.77249023 -19.61328125 1.76953125 C-20.54954346 1.76542236 -21.48580566 1.76131348 -22.45043945 1.75708008 C-25.09761326 2.00930051 -26.72969047 2.65474247 -29 4 C-29.495 3.505 -29.495 3.505 -30 3 C-34.83424498 2.70222226 -34.83424498 2.70222226 -39.375 4.125 C-42 5 -42 5 -45.57885742 4.0690918 C-53.03763847 2.30239345 -60.7450655 2.73372891 -68.36328125 2.76953125 C-70.04477401 2.77072528 -71.72626745 2.77117574 -73.40776062 2.7709198 C-76.91519402 2.77247667 -80.42252419 2.78070825 -83.92993164 2.79418945 C-88.42340752 2.81124385 -92.916771 2.81500144 -97.41027546 2.81424427 C-100.8752296 2.81451612 -104.34015922 2.81999875 -107.80510521 2.82724571 C-109.46249392 2.83042381 -111.1198854 2.83239778 -112.77727699 2.83313942 C-115.08895231 2.83530839 -117.40050851 2.84406277 -119.7121582 2.85473633 C-121.68331352 2.86045403 -121.68331352 2.86045403 -123.69429016 2.86628723 C-126.34807605 2.97363031 -128.48854869 3.20173756 -131 4 C-130.34 3.01 -129.68 2.02 -129 1 C-126.14149475 0.60127258 -126.14149475 0.60127258 -122.42211914 0.56762695 C-121.40199265 0.55234373 -121.40199265 0.55234373 -120.36125755 0.53675175 C-118.0858088 0.50634527 -115.81078281 0.49729197 -113.53515625 0.48828125 C-111.92650528 0.47133722 -110.31786714 0.45313409 -108.70924377 0.43374634 C-104.38762898 0.38553365 -100.06606988 0.35599162 -95.74427032 0.33024216 C-92.18264792 0.30667904 -88.62116993 0.27217439 -85.05964279 0.23732471 C-56.70743248 -0.03992916 -28.35329588 -0.13065109 0 0 Z " fill="#8D436B" transform="translate(166,52)"/>
<path d="M0 0 C1.87800293 0.02707031 1.87800293 0.02707031 3.79394531 0.0546875 C5.16214604 0.08702604 6.53031073 0.12092071 7.8984375 0.15625 C8.59255737 0.17268555 9.28667725 0.18912109 10.00183105 0.20605469 C15.093283 0.32954737 20.18325093 0.4894137 25.2734375 0.65625 C26.79947279 0.70462857 28.32551445 0.75280669 29.8515625 0.80078125 C33.53393015 0.91697036 37.21620529 1.03583607 40.8984375 1.15625 C40.8984375 1.48625 40.8984375 1.81625 40.8984375 2.15625 C11.94039554 4.16324301 11.94039554 4.16324301 -0.1015625 2.15625 C-0.0396875 3.579375 -0.0396875 3.579375 0.0234375 5.03125 C-0.1015625 8.15625 -0.1015625 8.15625 -2.1015625 10.15625 C2.75021538 10.26353346 2.75021538 10.26353346 7.5234375 9.53125 C9.8984375 9.15625 9.8984375 9.15625 12.5234375 10.21875 C13.3071875 10.528125 14.0909375 10.8375 14.8984375 11.15625 C15.8884375 10.49625 16.8784375 9.83625 17.8984375 9.15625 C18.8884375 9.81625 19.8784375 10.47625 20.8984375 11.15625 C20.8984375 10.49625 20.8984375 9.83625 20.8984375 9.15625 C23.3734375 10.14625 23.3734375 10.14625 25.8984375 11.15625 C22.40996928 13.30128684 19.65437872 13.38979662 15.6015625 13.3515625 C13.79365234 13.34189453 13.79365234 13.34189453 11.94921875 13.33203125 C10.06783203 13.30689453 10.06783203 13.30689453 8.1484375 13.28125 C6.87871094 13.27222656 5.60898437 13.26320312 4.30078125 13.25390625 C1.16647657 13.23034005 -1.96744791 13.19743832 -5.1015625 13.15625 C-5.1015625 12.49625 -5.1015625 11.83625 -5.1015625 11.15625 C-6.4215625 10.49625 -7.7415625 9.83625 -9.1015625 9.15625 C-9.2890625 5.78125 -9.2890625 5.78125 -9.1015625 2.15625 C-5.56306522 -0.20274819 -4.18294926 -0.07057776 0 0 Z " fill="#AD346E" transform="translate(56.1015625,158.84375)"/>
<path d="M0 0 C13.86 0 27.72 0 42 0 C42 0.66 42 1.32 42 2 C42.61875 2.04125 43.2375 2.0825 43.875 2.125 C46 3 46 3 47.25 5.8125 C48 9 48 9 48 13 C45.35799613 16.11324995 43.62812916 17.69482625 39.58905029 18.4519043 C36.65922368 18.62882444 33.77075693 18.64054293 30.8359375 18.59375 C29.23149277 18.59381042 29.23149277 18.59381042 27.59463501 18.59387207 C25.34037377 18.58852422 23.08611254 18.57097323 20.83203125 18.54199219 C17.37963027 18.50005624 13.92917581 18.50093283 10.4765625 18.5078125 C8.2838406 18.49732244 6.09112875 18.48438534 3.8984375 18.46875 C2.86608978 18.46854858 1.83374207 18.46834717 0.77011108 18.46813965 C-0.19123749 18.45222778 -1.15258606 18.43631592 -2.14306641 18.41992188 C-2.98656647 18.41150269 -3.83006653 18.4030835 -4.6991272 18.39440918 C-7.47825287 17.91801923 -8.89435939 16.82923953 -11 15 C-10.0140107 14.99120064 -10.0140107 14.99120064 -9.00810242 14.98222351 C-2.17869902 14.91838697 4.65022887 14.83399271 11.47924805 14.73754883 C14.02931456 14.7042539 16.57945559 14.67623637 19.12963867 14.65356445 C22.79117649 14.620103 26.45202864 14.56779019 30.11328125 14.51171875 C31.2571077 14.50532883 32.40093414 14.4989389 33.579422 14.49235535 C34.64029526 14.47256119 35.70116852 14.45276703 36.79418945 14.43237305 C37.72906693 14.42126999 38.6639444 14.41016693 39.62715149 14.39872742 C42.0402046 14.17164337 42.0402046 14.17164337 43.81364441 12.70344543 C45.72607064 9.95746122 45.18306261 7.23410614 45 4 C41.04353414 2.72276155 37.02412694 2.79310369 32.91015625 2.71875 C32.12861679 2.70034058 31.34707733 2.68193115 30.54185486 2.66296387 C28.0488111 2.60436659 25.55569995 2.55149549 23.0625 2.5 C19.78241513 2.43210773 16.50253461 2.35841417 13.22265625 2.28125 C12.09900414 2.26088684 12.09900414 2.26088684 10.95265198 2.2401123 C7.19274602 2.15126423 3.6594196 1.88887685 0 1 C0 0.67 0 0.34 0 0 Z " fill="#564975" transform="translate(155,144)"/>
<path d="M0 0 C0.99 0 1.98 0 3 0 C3 1.65 3 3.3 3 5 C4.32 5.66 5.64 6.32 7 7 C6.25130208 8.72526042 5.50260417 10.45052083 4.75390625 12.17578125 C4.10038058 13.75711021 3.54108198 15.37675406 3 17 C2.34 17 1.68 17 1 17 C-0.99864369 21.92998776 -2.07722311 24.74853736 -1 30 C-1.33 30.66 -1.66 31.32 -2 32 C-2.763125 31.979375 -3.52625 31.95875 -4.3125 31.9375 C-7.10185786 31.87057159 -7.10185786 31.87057159 -10 33 C-9.67 31.68 -9.34 30.36 -9 29 C-8.34 29 -7.68 29 -7 29 C-6.87753906 27.8759375 -6.75507813 26.751875 -6.62890625 25.59375 C-6.03241979 20.82185832 -5.01665216 16.18268144 -3.9375 11.5 C-3.75123047 10.67757812 -3.56496094 9.85515625 -3.37304688 9.0078125 C-2.91879115 7.0044283 -2.45988401 5.0020997 -2 3 C-1.34 3 -0.68 3 0 3 C0 2.01 0 1.02 0 0 Z " fill="#425290" transform="translate(210,23)"/>
<path d="M0 0 C1.6396875 0.02126953 1.6396875 0.02126953 3.3125 0.04296875 C11.97781375 0.20225761 11.97781375 0.20225761 16 1.375 C16.02685412 3.68743792 16.04632841 5.9999627 16.0625 8.3125 C16.07410156 9.60027344 16.08570313 10.88804687 16.09765625 12.21484375 C16 15.375 16 15.375 15 16.375 C8.89300412 16.60545267 8.89300412 16.60545267 6.0625 15.875 C2.72725218 15.06645507 -0.57718 15.317953 -4 15.375 C-4.33 16.035 -4.66 16.695 -5 17.375 C-5 16.715 -5 16.055 -5 15.375 C-6.093125 15.41625 -7.18625 15.4575 -8.3125 15.5 C-12 15.375 -12 15.375 -15 13.375 C-16.62791086 6.75482919 -16.62791086 6.75482919 -14.75390625 2.63671875 C-10.29984645 -1.02129632 -5.56881501 -0.19044297 0 0 Z M-12 2.375 C-14.32038095 5.20068546 -14.32038095 5.20068546 -13.8125 8.4375 C-13.26245502 11.67240953 -13.26245502 11.67240953 -10 13.375 C-7.01384046 13.79661515 -4.01281745 13.69934284 -1 13.6875 C-0.18015625 13.70361328 0.6396875 13.71972656 1.484375 13.73632812 C2.66773438 13.73729492 2.66773438 13.73729492 3.875 13.73828125 C4.95394531 13.74275269 4.95394531 13.74275269 6.0546875 13.74731445 C8.57785085 13.2644048 9.45695165 12.39847051 11 10.375 C11.58333333 7.375 11.58333333 7.375 11 4.375 C8.47956011 1.60897879 6.98927252 1.37407006 3.21484375 1.046875 C1.78886389 1.0574476 0.3629279 1.08394357 -1.0625 1.125 C-2.14241211 1.13273437 -2.14241211 1.13273437 -3.24414062 1.140625 C-6.40807833 1.18762872 -8.98112876 1.36870959 -12 2.375 Z " fill="#6C4680" transform="translate(144,118.625)"/>
<path d="M0 0 C0.99 0.33 1.98 0.66 3 1 C3.66 0.67 4.32 0.34 5 0 C6.6853196 -0.09534254 8.37449266 -0.12985758 10.0625 -0.125 C11.41021484 -0.12886719 11.41021484 -0.12886719 12.78515625 -0.1328125 C15 0 15 0 16 1 C18.37338639 1.15971977 20.72118272 1.2592433 23.09765625 1.31640625 C23.80651474 1.33718735 24.51537323 1.35796844 25.24571228 1.37937927 C27.51787305 1.44494598 29.79015264 1.5037923 32.0625 1.5625 C33.59962183 1.60567849 35.1367315 1.64929255 36.67382812 1.69335938 C40.4490959 1.80063449 44.2244836 1.90188137 48 2 C48 2.66 48 3.32 48 4 C25.56 4 3.12 4 -20 4 C-19.67 3.34 -19.34 2.68 -19 2 C-16.7421875 1.5859375 -16.7421875 1.5859375 -13.875 1.375 C-12.885 1.30023438 -11.895 1.22546875 -10.875 1.1484375 C-8.53117772 1.02742494 -6.22042894 0.97068214 -3.875 1 C-2.92625 1 -1.9775 1 -1 1 C-0.67 0.67 -0.34 0.34 0 0 Z " fill="#464570" transform="translate(176,90)"/>
<path d="M0 0 C9.48421053 -0.55789474 9.48421053 -0.55789474 14 3 C16 5 16 5 16.375 7.875 C16 11 16 11 14.66796875 13.17578125 C10.37696926 16.1097443 6.00439902 15.4575388 0.9375 15.3125 C-0.65288086 15.28929688 -0.65288086 15.28929688 -2.27539062 15.265625 C-11.86146604 15.09331687 -21.43404364 14.6317141 -31 14 C-30.67 13.34 -30.34 12.68 -30 12 C-24.48242521 11.97532391 -18.96488239 11.95715144 -13.44726562 11.94506836 C-11.56933025 11.94003237 -9.6913988 11.93320329 -7.81347656 11.92456055 C-5.11782868 11.91246287 -2.42223253 11.90676443 0.2734375 11.90234375 C1.11619232 11.89718246 1.95894714 11.89202118 2.82723999 11.88670349 C8.77225659 11.88612829 8.77225659 11.88612829 11 13 C11.33 10.36 11.66 7.72 12 5 C9.36 4.67 6.72 4.34 4 4 C4 3.34 4 2.68 4 2 C2.68 1.34 1.36 0.68 0 0 Z " fill="#344972" transform="translate(228,52)"/>
<path d="M0 0 C2.78633115 4.17949673 4 6.93375326 4 12 C4.66 12 5.32 12 6 12 C5.67 14.64 5.34 17.28 5 20 C6.65 19.67 8.3 19.34 10 19 C10 20.98 10 22.96 10 25 C11.98 25.33 13.96 25.66 16 26 C16.33 27.65 16.66 29.3 17 31 C17.77085938 30.97679687 18.54171875 30.95359375 19.3359375 30.9296875 C20.33882812 30.91164062 21.34171875 30.89359375 22.375 30.875 C23.37273437 30.85179687 24.37046875 30.82859375 25.3984375 30.8046875 C28 31 28 31 30 33 C13.0298165 34.0308098 13.0298165 34.0308098 8.6875 30.8125 C4.57797472 26.20021365 3.3960987 19.85800208 2 14 C1.77441406 13.11957031 1.54882812 12.23914063 1.31640625 11.33203125 C0.38491068 7.49683913 -0.25632792 3.97308277 0 0 Z " fill="#BB2B6C" transform="translate(46,112)"/>
<path d="M0 0 C0.598125 0.20625 1.19625 0.4125 1.8125 0.625 C1.8125 1.285 1.8125 1.945 1.8125 2.625 C1.1525 2.625 0.4925 2.625 -0.1875 2.625 C-0.1875 3.285 -0.1875 3.945 -0.1875 4.625 C-25.5975 4.625 -51.0075 4.625 -77.1875 4.625 C-77.1875 4.295 -77.1875 3.965 -77.1875 3.625 C-61.0175 3.295 -44.8475 2.965 -28.1875 2.625 C-28.1875 1.965 -28.1875 1.305 -28.1875 0.625 C-27.53265625 0.78097656 -26.8778125 0.93695313 -26.203125 1.09765625 C-19.06745203 2.61953 -12.39419231 3.0040584 -5.1875 1.625 C-2.1875 -0.375 -2.1875 -0.375 0 0 Z " fill="#644873" transform="translate(197.1875,168.375)"/>
<path d="M0 0 C4.78709468 -0.12358454 9.57326181 -0.21432771 14.36157227 -0.2746582 C15.9903175 -0.29980568 17.61894985 -0.33392878 19.24731445 -0.37719727 C21.58833634 -0.4378455 23.92786731 -0.46620476 26.26953125 -0.48828125 C26.99775589 -0.51408768 27.72598053 -0.5398941 28.47627258 -0.56648254 C30.53833008 -0.56762695 30.53833008 -0.56762695 34 0 C36.02612305 2.33129883 36.02612305 2.33129883 37 5 C36.23827309 8.53164296 35.56128588 10.43871412 33 13 C30.84521484 13.22705078 30.84521484 13.22705078 28.2109375 13.1953125 C27.26992187 13.18886719 26.32890625 13.18242188 25.359375 13.17578125 C24.37453125 13.15902344 23.3896875 13.14226562 22.375 13.125 C21.38242188 13.11597656 20.38984375 13.10695313 19.3671875 13.09765625 C16.91121866 13.07404116 14.45572832 13.04110799 12 13 C12 12.34 12 11.68 12 11 C12.99902344 10.95101562 13.99804688 10.90203125 15.02734375 10.8515625 C16.31769531 10.77679688 17.60804688 10.70203125 18.9375 10.625 C20.22527344 10.55539063 21.51304687 10.48578125 22.83984375 10.4140625 C23.88269531 10.27742188 24.92554688 10.14078125 26 10 C26.33 9.34 26.66 8.68 27 8 C28.9375 7.4375 28.9375 7.4375 31 7 C31.66 6.67 32.32 6.34 33 6 C32.505 5.01 32.505 5.01 32 4 C32.33 3.34 32.66 2.68 33 2 C22.11 1.67 11.22 1.34 0 1 C0 0.67 0 0.34 0 0 Z M30 5 C30.99 5.495 30.99 5.495 32 6 C31.01 6.495 31.01 6.495 30 7 C30 6.34 30 5.68 30 5 Z " fill="#414888" transform="translate(192,107)"/>
<path d="M0 0 C6.05699492 0.37856218 10.27177394 2.15574664 15 6 C20.03139955 12.321502 20.6886735 18.11155813 20 26 C18.8125 29.25 18.8125 29.25 17 32 C16.319375 33.051875 15.63875 34.10375 14.9375 35.1875 C11.59791165 39.11460852 6.85539038 39.92521456 2 41 C2 40.34 2 39.68 2 39 C3.65 38.34 5.3 37.68 7 37 C7 36.34 7 35.68 7 35 C7.5775 34.9175 8.155 34.835 8.75 34.75 C12.31914344 33.56028552 14.14404237 31.55054619 15.953125 28.2734375 C18.22334883 23.09319948 18.6344663 18.44822101 17 13 C13.78815284 7.89883098 10.60763994 6.00272855 5 4 C4.030625 3.608125 3.06125 3.21625 2.0625 2.8125 C1.381875 2.544375 0.70125 2.27625 0 2 C0 1.34 0 0.68 0 0 Z " fill="#404771" transform="translate(195,132)"/>
<path d="M0 0 C1.796875 1.55078125 1.796875 1.55078125 3 3 C2.42894531 2.83757812 1.85789062 2.67515625 1.26953125 2.5078125 C-4.50920193 1.21480852 -11.30590185 1.60552698 -17 3 C-18.51294288 4.93597032 -18.51294288 4.93597032 -19 7 C-19.66 7 -20.32 7 -21 7 C-22.23839599 13.65637843 -22.09139136 20.2471936 -22 27 C-22.66 27.33 -23.32 27.66 -24 28 C-26.56570583 23.18930157 -26.65450746 18.30878274 -26 13 C-24.33221267 7.726186 -21.79733411 3.90071365 -17 1 C-11.40093134 -1.30549886 -5.84796336 -1.52333311 0 0 Z " fill="#BA2C5D" transform="translate(82,176)"/>
<path d="M0 0 C10.56 0 21.12 0 32 0 C32 0.33 32 0.66 32 1 C22.1 1 12.2 1 2 1 C1.05439317 6.17492967 1.05439317 6.17492967 0.11547852 11.35107422 C-0.88888889 16.77777778 -0.88888889 16.77777778 -2 19 C-1.05125 18.95875 -0.1025 18.9175 0.875 18.875 C4 19 4 19 6 21 C4 23 4 23 1.6171875 23.1953125 C0.71226562 23.17210938 -0.19265625 23.14890625 -1.125 23.125 C-2.49011719 23.09792969 -2.49011719 23.09792969 -3.8828125 23.0703125 C-4.58148438 23.04710938 -5.28015625 23.02390625 -6 23 C-5.67 21.35 -5.34 19.7 -5 18 C-5.66 17.67 -6.32 17.34 -7 17 C-6.1875 15.0625 -6.1875 15.0625 -5 13 C-4.01 12.67 -3.02 12.34 -2 12 C-1.34 8.04 -0.68 4.08 0 0 Z " fill="#394A71" transform="translate(219,33)"/>
<path d="M0 0 C6.14314878 0.492219 12.28261531 0.87417723 18.4375 1.1875 C19.28820068 1.23116699 20.13890137 1.27483398 21.01538086 1.31982422 C23.03103082 1.4226614 25.04675725 1.52399796 27.0625 1.625 C27.0625 1.955 27.0625 2.285 27.0625 2.625 C-5.2775 2.625 -37.6175 2.625 -70.9375 2.625 C-70.9375 2.295 -70.9375 1.965 -70.9375 1.625 C-70.15267242 1.61469254 -69.36784485 1.60438507 -68.55923462 1.59376526 C-61.17227672 1.49589223 -53.78540454 1.39339247 -46.39858437 1.28566074 C-42.60071358 1.23043556 -38.8028351 1.17701622 -35.00488281 1.12768555 C-31.34142633 1.08003599 -27.67806454 1.027693 -24.01472092 0.97205925 C-22.61527227 0.95163837 -21.21579765 0.93292483 -19.81630325 0.91592598 C-17.86005986 0.89187639 -15.90390051 0.86125878 -13.94775391 0.83032227 C-12.27563339 0.80700584 -12.27563339 0.80700584 -10.56973267 0.78321838 C-6.6674431 0.54865935 -4.12748901 -0.35639928 0 0 Z " fill="#7B446E" transform="translate(132.9375,143.375)"/>
<path d="M0 0 C16.83 0 33.66 0 51 0 C50.67 0.99 50.34 1.98 50 3 C49.505 2.505 49.505 2.505 49 2 C45.23597238 1.74702401 41.45901963 1.81477063 37.6875 1.8125 C36.62853516 1.80025391 35.56957031 1.78800781 34.47851562 1.77539062 C32.94807617 1.77249023 32.94807617 1.77249023 31.38671875 1.76953125 C30.45045654 1.76542236 29.51419434 1.76131348 28.54956055 1.75708008 C25.90238674 2.00930051 24.27030953 2.65474247 22 4 C21.67 3.67 21.34 3.34 21 3 C16.14944201 2.69025733 16.14944201 2.69025733 11.625 4.1875 C7.42112415 5.48869967 3.95829128 3.60401346 0 2 C0 1.34 0 0.68 0 0 Z " fill="#714671" transform="translate(115,52)"/>
<path d="M0 0 C0.99 0 1.98 0 3 0 C4 3 4 3 3.5 5.1875 C2.83761343 8.91342445 3.40902025 12.30820058 4 16 C4.144375 17.010625 4.28875 18.02125 4.4375 19.0625 C5.51622799 25.6167715 5.51622799 25.6167715 9 31 C9.66 30.67 10.32 30.34 11 30 C11.04241723 32.33294775 11.04092937 34.66702567 11 37 C10.505 37.495 10.505 37.495 10 38 C10.66 38.66 11.32 39.32 12 40 C10.68 40 9.36 40 8 40 C7.67 40.66 7.34 41.32 7 42 C6.875 36.25 6.875 36.25 8 34 C7.34 34 6.68 34 6 34 C2.57680555 25.30667827 1.27586944 17.32438703 1 8 C0.34 8 -0.32 8 -1 8 C-1.04241723 5.66705225 -1.04092937 3.33297433 -1 1 C-0.67 0.67 -0.34 0.34 0 0 Z " fill="#C3286B" transform="translate(44,90)"/>
<path d="M0 0 C4.50232334 -0.07417023 9.00429091 -0.1286105 13.50708008 -0.16479492 C15.03871861 -0.17987936 16.57031398 -0.20034978 18.10180664 -0.22631836 C20.30365654 -0.26271847 22.50493533 -0.27972913 24.70703125 -0.29296875 C25.39150833 -0.30845261 26.07598541 -0.32393646 26.78120422 -0.33988953 C29.63027814 -0.34089756 31.54928919 -0.3058132 33.9440918 1.3190918 C35.53201313 3.84691569 35.19384651 6.0923023 35 9 C34.34 9 33.68 9 33 9 C33 9.66 33 10.32 33 11 C30.69 11 28.38 11 26 11 C27 9 27 9 30 8 C30 7.34 30 6.68 30 6 C29.34 5.67 28.68 5.34 28 5 C28.33 3.68 28.66 2.36 29 1 C28.08089844 1.17402344 27.16179687 1.34804687 26.21484375 1.52734375 C20.99064007 2.27365856 15.81172525 1.85962596 10.5625 1.5625 C9.54478516 1.51029297 8.52707031 1.45808594 7.47851562 1.40429688 C4.98529631 1.27553907 2.49257367 1.1406198 0 1 C0 0.67 0 0.34 0 0 Z " fill="#2B5D96" transform="translate(220,81)"/>
<path d="M0 0 C0.66 0 1.32 0 2 0 C1.85904936 1.6254308 1.71207913 3.25034051 1.5625 4.875 C1.48128906 5.77992187 1.40007812 6.68484375 1.31640625 7.6171875 C1 10 1 10 0 12 C0.42218051 14.56386707 1.02913608 17.06114622 1.625 19.58984375 C2 22 2 22 1 25 C0.236875 24.979375 -0.52625 24.95875 -1.3125 24.9375 C-4.10185786 24.87057159 -4.10185786 24.87057159 -7 26 C-6.67 24.68 -6.34 23.36 -6 22 C-5.34 22 -4.68 22 -4 22 C-3.896875 20.96875 -3.79375 19.9375 -3.6875 18.875 C-2.90535611 12.50282776 -1.39784864 6.25954864 0 0 Z " fill="#48508E" transform="translate(207,30)"/>
<path d="M0 0 C2.0423166 0.00503074 4.08463441 0.00959083 6.12695312 0.01367188 C11.06383287 0.02453969 16.00065246 0.04171529 20.9375 0.0625 C20.9375 0.3925 20.9375 0.7225 20.9375 1.0625 C19.95354248 1.08755615 18.96958496 1.1126123 17.95581055 1.13842773 C14.30479943 1.2326082 10.65397384 1.3328029 7.00317383 1.43481445 C5.42313985 1.47812305 3.84306031 1.51980106 2.26293945 1.55981445 C-0.00844048 1.61761583 -2.27959189 1.6812816 -4.55078125 1.74609375 C-5.25713211 1.76280624 -5.96348297 1.77951874 -6.6912384 1.79673767 C-9.7289824 1.8884747 -12.15873058 2.09457686 -15.0625 3.0625 C-16.98343176 3.07833723 -18.90522328 3.02907609 -20.82421875 2.94140625 C-21.94248047 2.89306641 -23.06074219 2.84472656 -24.21289062 2.79492188 C-25.96375977 2.71081055 -25.96375977 2.71081055 -27.75 2.625 C-29.51827148 2.54668945 -29.51827148 2.54668945 -31.32226562 2.46679688 C-34.23594094 2.33703806 -37.14928078 2.20206868 -40.0625 2.0625 C-40.0625 1.7325 -40.0625 1.4025 -40.0625 1.0625 C-26.69764954 0.06723324 -13.39734247 -0.05814914 0 0 Z " fill="#435176" transform="translate(231.0625,78.9375)"/>
<path d="M0 0 C0.82062424 0.04011703 1.64124847 0.08023407 2.48674011 0.12156677 C3.36808121 0.17047562 4.2494223 0.21938446 5.1574707 0.26977539 C6.5161602 0.33848595 6.5161602 0.33848595 7.90229797 0.40858459 C10.79625483 0.55617164 13.68972275 0.71170559 16.58325195 0.86743164 C18.54481349 0.96886662 20.50640185 1.06978448 22.46801758 1.17016602 C27.27759411 1.41742107 32.08674718 1.67180426 36.89575195 1.92993164 C36.89575195 2.25993164 36.89575195 2.58993164 36.89575195 2.92993164 C22.04575195 2.92993164 7.19575195 2.92993164 -8.10424805 2.92993164 C-6.36744903 -0.54366639 -3.46284916 -0.18113365 0 0 Z " fill="#4C476E" transform="translate(179.104248046875,64.070068359375)"/>
<path d="M0 0 C3.01182214 2.83806317 4.10093484 4.8792847 5 9 C5.10359019 15.37079693 4.2518348 20.03952606 0 25 C-2.5625 27.4375 -2.5625 27.4375 -5 29 C-5.99 28.67 -6.98 28.34 -8 28 C-7.34 28 -6.68 28 -6 28 C-5.7525 27.401875 -5.505 26.80375 -5.25 26.1875 C-4 24 -4 24 -2.0078125 22.64453125 C1.05362999 20.13700735 1.18208637 17.62754691 1.828125 13.8515625 C2.11596306 9.07606746 1.14133945 4.61803499 0 0 Z " fill="#A0315D" transform="translate(191,182)"/>
<path d="M0 0 C1.01449219 -0.00257812 2.02898437 -0.00515625 3.07421875 -0.0078125 C8.61879146 0.0660167 8.61879146 0.0660167 10.875 0.5 C12.98327055 3.66240582 13.21317465 5.00657469 13.5 8.6875 C13.57476562 9.58855469 13.64953125 10.48960937 13.7265625 11.41796875 C13.77554688 12.10503906 13.82453125 12.79210937 13.875 13.5 C12.555 13.5 11.235 13.5 9.875 13.5 C10.205 10.53 10.535 7.56 10.875 4.5 C7.72185215 2.39790143 7.01396919 2.2565239 3.42578125 2.3046875 C2.57822266 2.31113281 1.73066406 2.31757812 0.85742188 2.32421875 C-0.46418945 2.34935547 -0.46418945 2.34935547 -1.8125 2.375 C-3.15151367 2.38853516 -3.15151367 2.38853516 -4.51757812 2.40234375 C-6.72016666 2.42590085 -8.92261725 2.46177156 -11.125 2.5 C-11.455 5.47 -11.785 8.44 -12.125 11.5 C-13.115 11.17 -14.105 10.84 -15.125 10.5 C-15.48190303 7.3770985 -15.21993507 5.69015102 -13.8046875 2.85546875 C-9.60806958 -0.83339511 -5.39355077 -0.15193101 0 0 Z " fill="#5F4169" transform="translate(143.125,118.5)"/>
<path d="M0 0 C11.70134149 -0.15956375 23.31923512 0.33591591 35 1 C34.67 1.66 34.34 2.32 34 3 C29.80081815 3.07430494 25.60198726 3.12867413 21.40234375 3.16479492 C19.97454154 3.17985681 18.5467854 3.20031062 17.11914062 3.22631836 C15.06368627 3.26281842 13.00884495 3.27975166 10.953125 3.29296875 C9.71723633 3.3086792 8.48134766 3.32438965 7.20800781 3.34057617 C3.79838589 2.97859576 2.45418505 2.32290222 0 0 Z " fill="#644677" transform="translate(144,159)"/>
<path d="M0 0 C-1.56010578 4.21228561 -4.4845393 6.34546845 -8 9 C-13.67147014 10.89049005 -19.80797914 10.75724357 -25.4375 8.8125 C-28.22558713 6.84043837 -30.04246123 4.78572825 -32 2 C-28.6496302 2.57764997 -27.31766228 3.58576846 -25 6 C-22.06860368 7.72697479 -19.62479362 8.32722409 -16.25 8.625 C-15.45078125 8.69976562 -14.6515625 8.77453125 -13.828125 8.8515625 C-13.22484375 8.90054688 -12.6215625 8.94953125 -12 9 C-12 8.34 -12 7.68 -12 7 C-11.05125 6.7525 -10.1025 6.505 -9.125 6.25 C-5.91753905 5.33044533 -5.91753905 5.33044533 -4.75 2.9375 C-4.5025 2.298125 -4.255 1.65875 -4 1 C-2 0 -2 0 0 0 Z " fill="#9F305B" transform="translate(91,202)"/>
<path d="M0 0 C1.796875 1.55078125 1.796875 1.55078125 3 3 C2.42894531 2.83757812 1.85789062 2.67515625 1.26953125 2.5078125 C-4.50920193 1.21480852 -11.30590185 1.60552698 -17 3 C-18.51294288 4.93597032 -18.51294288 4.93597032 -19 7 C-19.66 7 -20.32 7 -21 7 C-21 7.66 -21 8.32 -21 9 C-21.99 9.33 -22.98 9.66 -24 10 C-22.64224132 5.55642615 -20.90116959 3.51408707 -17 1 C-11.40093134 -1.30549886 -5.84796336 -1.52333311 0 0 Z " fill="#A02F59" transform="translate(82,176)"/>
<path d="M0 0 C0.99 0.33 1.98 0.66 3 1 C3.66 0.67 4.32 0.34 5 0 C6.70702735 -0.06996014 8.41668003 -0.08440154 10.125 -0.0625 C11.03507812 -0.05347656 11.94515625 -0.04445313 12.8828125 -0.03515625 C13.93082031 -0.01775391 13.93082031 -0.01775391 15 0 C15.495 0.99 15.495 0.99 16 2 C9.20336964 3.26750669 2.45701316 3.11139726 -4.4375 3.0625 C-5.64599609 3.05798828 -6.85449219 3.05347656 -8.09960938 3.04882812 C-11.06645789 3.03710145 -14.0332027 3.02068896 -17 3 C-17 2.67 -17 2.34 -17 2 C-11.62238402 1.31712813 -6.42781107 1 -1 1 C-0.67 0.67 -0.34 0.34 0 0 Z " fill="#57477D" transform="translate(176,90)"/>
<path d="M0 0 C-0.33 0.99 -0.66 1.98 -1 3 C-2.65 3.33 -4.3 3.66 -6 4 C-6.309375 5.27875 -6.61875 6.5575 -6.9375 7.875 C-7.47605244 10.10101675 -7.9737 11.94739999 -9 14 C-9.99 13.67 -10.98 13.34 -12 13 C-11.835 12.236875 -11.67 11.47375 -11.5 10.6875 C-10.90854604 7.96403764 -10.90854604 7.96403764 -11 5 C-10.34 5.33 -9.68 5.66 -9 6 C-8.87625 5.195625 -8.7525 4.39125 -8.625 3.5625 C-8.41875 2.716875 -8.2125 1.87125 -8 1 C-5.29120665 -0.35439668 -2.99066732 -0.06501451 0 0 Z " fill="#684684" transform="translate(172,64)"/>
<path d="M0 0 C0.66 0 1.32 0 2 0 C2.33 1.65 2.66 3.3 3 5 C5.64 5.66 8.28 6.32 11 7 C10.01 8.485 10.01 8.485 9 10 C6.6171875 10.29296875 6.6171875 10.29296875 3.875 10.1875 C2.96492187 10.16042969 2.05484375 10.13335937 1.1171875 10.10546875 C0.41851562 10.07066406 -0.28015625 10.03585938 -1 10 C-0.67 8.35 -0.34 6.7 0 5 C-0.66 4.67 -1.32 4.34 -2 4 C-1.34 2.68 -0.68 1.36 0 0 Z " fill="#3C4E85" transform="translate(214,46)"/>
<path d="M0 0 C0.93392578 0.24556641 0.93392578 0.24556641 1.88671875 0.49609375 C6.20692382 1.19534902 10.44456045 1.10484393 14.8125 1.0625 C16.13797852 1.05573242 16.13797852 1.05573242 17.49023438 1.04882812 C19.66018559 1.03709866 21.83010172 1.01916495 24 1 C24 1.99 24 2.98 24 4 C19.71 4 15.42 4 11 4 C10.67 4.66 10.34 5.32 10 6 C10 5.34 10 4.68 10 4 C8.3603125 4.061875 8.3603125 4.061875 6.6875 4.125 C3 4 3 4 0 2 C0 1.34 0 0.68 0 0 Z " fill="#694471" transform="translate(129,130)"/>
<path d="M0 0 C0.66 0 1.32 0 2 0 C2 0.66 2 1.32 2 2 C2.99 2.33 3.98 2.66 5 3 C4.41196203 6.02419525 3.77321882 9.01758453 3 12 C3.66 12 4.32 12 5 12 C5.95261487 16.76307437 6.08333357 21.1666528 6 26 C3.70957055 22.11039684 2.87832498 17.91395761 1.875 13.5625 C1.69324219 12.81162109 1.51148438 12.06074219 1.32421875 11.28710938 C0.42718112 7.45277934 -0.23664396 3.96773046 0 0 Z " fill="#A63262" transform="translate(40,86)"/>
<path d="M0 0 C2.78633115 4.17949673 4 6.93375326 4 12 C4.66 12 5.32 12 6 12 C5.95875 13.155 5.9175 14.31 5.875 15.5 C5.85912567 19.94481301 6.78206895 23.73724131 8 28 C5.33552158 25.70143285 4.4462177 23.90536203 3.61328125 20.5078125 C3.39736328 19.63769531 3.18144531 18.76757812 2.95898438 17.87109375 C2.74564453 16.96488281 2.53230469 16.05867188 2.3125 15.125 C2.08755859 14.22652344 1.86261719 13.32804687 1.63085938 12.40234375 C0.59804409 8.15179089 -0.12326594 4.39567333 0 0 Z " fill="#9F3461" transform="translate(46,112)"/>
<path d="M0 0 C11.55 0 23.1 0 35 0 C35 0.33 35 0.66 35 1 C34.17274414 1.01458252 33.34548828 1.02916504 32.49316406 1.04418945 C28.74497119 1.1186586 24.99767003 1.2153246 21.25 1.3125 C19.29707031 1.34633789 19.29707031 1.34633789 17.3046875 1.38085938 C15.42910156 1.4340332 15.42910156 1.4340332 13.515625 1.48828125 C12.36352539 1.51446533 11.21142578 1.54064941 10.02441406 1.56762695 C6.74092192 2.03703804 5.49232167 2.91733177 3 5 C0.75 4.6875 0.75 4.6875 -1 4 C-0.67 2.68 -0.34 1.36 0 0 Z " fill="#57447E" transform="translate(153,107)"/>
<path d="M0 0 C0.99 0.33 1.98 0.66 3 1 C3.36314325 3.74908445 3.71580841 6.49883451 4.0625 9.25 C4.16626953 10.02730469 4.27003906 10.80460937 4.37695312 11.60546875 C4.51713867 12.73662109 4.51713867 12.73662109 4.66015625 13.890625 C4.74918213 14.58188477 4.83820801 15.27314453 4.92993164 15.98535156 C5.00606235 18.17430848 4.6249336 19.91005813 4 22 C3.34 22 2.68 22 2 22 C0.94341869 17.90574741 0.951456 14.08253611 1.0625 9.890625 C1.21514645 7.98736043 1.21514645 7.98736043 0 7 C-0.04092937 4.66702567 -0.04241723 2.33294775 0 0 Z " fill="#C52661" transform="translate(37,64)"/>
<path d="M0 0 C1.32 0.66 2.64 1.32 4 2 C4 1.34 4 0.68 4 0 C5.65 0.66 7.3 1.32 9 2 C5.51153178 4.14503684 2.75594122 4.23354662 -1.296875 4.1953125 C-3.10478516 4.18564453 -3.10478516 4.18564453 -4.94921875 4.17578125 C-6.83060547 4.15064453 -6.83060547 4.15064453 -8.75 4.125 C-10.01972656 4.11597656 -11.28945313 4.10695312 -12.59765625 4.09765625 C-15.73196093 4.07409005 -18.86588541 4.04118832 -22 4 C-22 3.67 -22 3.34 -22 3 C-21.40461426 2.98018066 -20.80922852 2.96036133 -20.19580078 2.93994141 C-17.50507847 2.84483874 -14.81514852 2.73510158 -12.125 2.625 C-11.18785156 2.5940625 -10.25070313 2.563125 -9.28515625 2.53125 C-7.94130859 2.47324219 -7.94130859 2.47324219 -6.5703125 2.4140625 C-5.74289551 2.3826416 -4.91547852 2.3512207 -4.06298828 2.31884766 C-1.78013915 2.17400863 -1.78013915 2.17400863 0 0 Z " fill="#A9356E" transform="translate(73,168)"/>
<path d="M0 0 C1.84765625 0.33984375 1.84765625 0.33984375 4.0625 0.9375 C4.79597656 1.13214844 5.52945313 1.32679687 6.28515625 1.52734375 C7.13400391 1.76130859 7.13400391 1.76130859 8 2 C8 2.33 8 2.66 8 3 C7.37955811 3.01458252 6.75911621 3.02916504 6.11987305 3.04418945 C3.30845367 3.11866588 0.49822251 3.21532564 -2.3125 3.3125 C-3.28896484 3.33505859 -4.26542969 3.35761719 -5.27148438 3.38085938 C-6.20927734 3.41630859 -7.14707031 3.45175781 -8.11328125 3.48828125 C-9.40939331 3.52755737 -9.40939331 3.52755737 -10.73168945 3.56762695 C-13.40213987 4.07665372 -14.31011183 4.92329908 -16 7 C-16 4 -16 4 -14.8828125 2.3203125 C-12.177106 0.42294985 -10.13660445 0.74139211 -6.875 0.875 C-4.91748948 0.94541405 -2.95876782 0.99415293 -1 1 C-0.67 0.67 -0.34 0.34 0 0 Z " fill="#75417C" transform="translate(145,116)"/>
<path d="M0 0 C1.99954746 -0.04254356 4.00041636 -0.04080783 6 0 C7 1 7 1 7.0625 4.5625 C7.041875 5.696875 7.02125 6.83125 7 8 C4.69 8.33 2.38 8.66 0 9 C3 7 3 7 5 7 C5 5.35 5 3.7 5 2 C4.34 2 3.68 2 3 2 C2.67 3.32 2.34 4.64 2 6 C1.01 5.67 0.02 5.34 -1 5 C-0.67 3.35 -0.34 1.7 0 0 Z " fill="#1D5E9B" transform="translate(257,22)"/>
<path d="M0 0 C0.8971875 0.309375 0.8971875 0.309375 1.8125 0.625 C1.8125 1.285 1.8125 1.945 1.8125 2.625 C1.1525 2.625 0.4925 2.625 -0.1875 2.625 C-0.1875 3.285 -0.1875 3.945 -0.1875 4.625 C-5.7975 4.625 -11.4075 4.625 -17.1875 4.625 C-17.1875 3.965 -17.1875 3.305 -17.1875 2.625 C-15.94033203 2.55152344 -15.94033203 2.55152344 -14.66796875 2.4765625 C-13.58128906 2.40179688 -12.49460938 2.32703125 -11.375 2.25 C-10.29605469 2.18039063 -9.21710938 2.11078125 -8.10546875 2.0390625 C-4.79723813 1.56962147 -3.23648403 -0.55482583 0 0 Z " fill="#554A76" transform="translate(197.1875,168.375)"/>
<path d="M0 0 C1.60294922 0.01353516 1.60294922 0.01353516 3.23828125 0.02734375 C4.04652344 0.03894531 4.85476562 0.05054687 5.6875 0.0625 C5.6875 0.3925 5.6875 0.7225 5.6875 1.0625 C0.60663204 1.90931133 -4.16078377 2.15288099 -9.3125 2.0625 C-9.36148438 2.91714844 -9.41046875 3.77179687 -9.4609375 4.65234375 C-9.53570312 5.75707031 -9.61046875 6.86179687 -9.6875 8 C-9.79191406 9.65322266 -9.79191406 9.65322266 -9.8984375 11.33984375 C-10.03507813 12.23832031 -10.17171875 13.13679688 -10.3125 14.0625 C-11.3025 14.5575 -11.3025 14.5575 -12.3125 15.0625 C-12.33944851 13.10424127 -12.35887218 11.14587774 -12.375 9.1875 C-12.38660156 8.09695312 -12.39820313 7.00640625 -12.41015625 5.8828125 C-12.3125 3.0625 -12.3125 3.0625 -11.3125 1.0625 C-7.536414 -0.01929761 -3.90752858 -0.04293987 0 0 Z " fill="#39518B" transform="translate(228.3125,30.9375)"/>
<path d="M0 0 C6.76644787 6.41031904 6.76644787 6.41031904 7.265625 11.9453125 C7.26046875 12.99460938 7.2553125 14.04390625 7.25 15.125 C7.25515625 16.17945313 7.2603125 17.23390625 7.265625 18.3203125 C7 21 7 21 5 23 C4.96132812 21.60587891 4.96132812 21.60587891 4.921875 20.18359375 C4.58983856 12.94670853 4.19304634 7.95142061 0 2 C0 1.34 0 0.68 0 0 Z " fill="#9B355C" transform="translate(86,179)"/>
<path d="M0 0 C3.64840062 0.44674293 7.03455387 1.01030554 10.5625 2.0625 C13.93878866 3.14526273 13.93878866 3.14526273 17.3125 3 C18.199375 3 19.08625 3 20 3 C20.66 3.66 21.32 4.32 22 5 C19.26916098 5.13548815 16.54508193 5.23429855 13.8125 5.3125 C13.04357422 5.35439453 12.27464844 5.39628906 11.48242188 5.43945312 C7.03371827 5.53491887 5.52445124 5.43312555 1.94921875 2.48046875 C1.30597656 1.66191406 0.66273437 0.84335938 0 0 Z " fill="#A33469" transform="translate(54,140)"/>
<path d="M0 0 C-0.66 1.32 -1.32 2.64 -2 4 C-8.6 4 -15.2 4 -22 4 C-22 3.67 -22 3.34 -22 3 C-21.00097656 2.95101562 -20.00195312 2.90203125 -18.97265625 2.8515625 C-17.68230469 2.77679688 -16.39195312 2.70203125 -15.0625 2.625 C-13.77472656 2.55539063 -12.48695313 2.48578125 -11.16015625 2.4140625 C-10.11730469 2.27742188 -9.07445312 2.14078125 -8 2 C-7.67 1.34 -7.34 0.68 -7 0 C-4.0262656 -1.09036928 -3.11592499 -1.03864166 0 0 Z " fill="#3F4E87" transform="translate(226,115)"/>
<path d="M0 0 C0.66 0.99 1.32 1.98 2 3 C1.1025444 6.06630664 0.26961192 7.73038808 -2 10 C-4.15478516 10.22705078 -4.15478516 10.22705078 -6.7890625 10.1953125 C-7.73007813 10.18886719 -8.67109375 10.18242188 -9.640625 10.17578125 C-10.62546875 10.15902344 -11.6103125 10.14226562 -12.625 10.125 C-13.61757812 10.11597656 -14.61015625 10.10695313 -15.6328125 10.09765625 C-18.08878134 10.07404116 -20.54427168 10.04110799 -23 10 C-23 9.67 -23 9.34 -23 9 C-13.1 8.505 -13.1 8.505 -3 8 C-2.01 5.36 -1.02 2.72 0 0 Z " fill="#3E4873" transform="translate(227,110)"/>
<path d="M0 0 C0.66 0.33 1.32 0.66 2 1 C1.67 1.33 1.34 1.66 1 2 C1 3.0725 1 4.145 1 5.25 C1 8.42441862 0.64636175 10.9297817 0 14 C-0.0370279 15.6662553 -0.04759962 17.33401319 0 19 C-2.70765781 14.93851328 -3.47310114 10.74924328 -2.6484375 5.95703125 C-1.38532764 1.38532764 -1.38532764 1.38532764 0 0 Z " fill="#A52C56" transform="translate(161,184)"/>
<path d="M0 0 C2.375 0.625 2.375 0.625 5 2 C6.64997163 5.61422357 7 7.99834806 7 12 C4.59242867 14.59276913 3.31246095 14.98197341 -0.25 15.1875 C-1.1575 15.125625 -2.065 15.06375 -3 15 C-2.401875 14.731875 -1.80375 14.46375 -1.1875 14.1875 C1.14126747 12.92331195 2.49243283 12.1859724 4 10 C4.2503577 6.37464024 4.2503577 6.37464024 4 3 C2.68 2.67 1.36 2.34 0 2 C0 1.34 0 0.68 0 0 Z " fill="#44466F" transform="translate(196,145)"/>
<path d="M0 0 C0.66 0.66 1.32 1.32 2 2 C1.67 2.66 1.34 3.32 1 4 C-1.5625 4.625 -1.5625 4.625 -4 5 C-4.66 6.98 -5.32 8.96 -6 11 C-7 9 -7 9 -6.5 7.0625 C-5.76397597 4.82334576 -5.76397597 4.82334576 -7 2 C-4.35261084 0.5393715 -3.10551666 0 0 0 Z " fill="#734282" transform="translate(153,89)"/>
<path d="M0 0 C7.26 0 14.52 0 22 0 C22 0.33 22 0.66 22 1 C20.73542969 1.06058594 19.47085938 1.12117188 18.16796875 1.18359375 C16.50780129 1.26800904 14.84764563 1.35265655 13.1875 1.4375 C12.35412109 1.47681641 11.52074219 1.51613281 10.66210938 1.55664062 C9.85966797 1.59853516 9.05722656 1.64042969 8.23046875 1.68359375 C7.49207764 1.72025146 6.75368652 1.75690918 5.99291992 1.79467773 C3.792505 1.94842141 3.792505 1.94842141 1 3 C0.67 3.66 0.34 4.32 0 5 C-0.66 5 -1.32 5 -2 5 C-1.34 3.35 -0.68 1.7 0 0 Z " fill="#53466F" transform="translate(170,119)"/>
<path d="M0 0 C1.61648437 0.04060547 1.61648437 0.04060547 3.265625 0.08203125 C4.08546875 0.11683594 4.9053125 0.15164062 5.75 0.1875 C5.75 0.5175 5.75 0.8475 5.75 1.1875 C4.99074219 1.21328125 4.23148438 1.2390625 3.44921875 1.265625 C2.45535156 1.32234375 1.46148437 1.3790625 0.4375 1.4375 C-0.54863281 1.48390625 -1.53476562 1.5303125 -2.55078125 1.578125 C-5.36129411 1.95684202 -5.36129411 1.95684202 -7.125 4.09375 C-8.48369366 6.12863053 -8.48369366 6.12863053 -7.9375 8.4375 C-7.5971875 9.30375 -7.5971875 9.30375 -7.25 10.1875 C-8.24 9.5275 -9.23 8.8675 -10.25 8.1875 C-10.6875 5.75 -10.6875 5.75 -10.25 3.1875 C-7.01772472 -0.06791806 -4.46710444 -0.14566645 0 0 Z " fill="#B22F68" transform="translate(57.25,159.8125)"/>
<path d="M0 0 C6.27 0 12.54 0 19 0 C19 0.66 19 1.32 19 2 C19.66 2 20.32 2 21 2 C20.67 2.66 20.34 3.32 20 4 C16.125 3.125 16.125 3.125 15 2 C12.47403741 1.76346477 9.96892793 1.57826308 7.4375 1.4375 C6.72658203 1.39431641 6.01566406 1.35113281 5.28320312 1.30664062 C3.52238088 1.20028223 1.7612168 1.09961154 0 1 C0 0.67 0 0.34 0 0 Z " fill="#4F4C79" transform="translate(176,132)"/>
<path d="M0 0 C0.66 0 1.32 0 2 0 C2.144375 1.134375 2.28875 2.26875 2.4375 3.4375 C2.61171478 6.80777201 2.61171478 6.80777201 4 8 C4.07179964 9.51928038 4.08392007 11.04167482 4.0625 12.5625 C4.05347656 13.38878906 4.04445313 14.21507813 4.03515625 15.06640625 C4.01775391 16.02353516 4.01775391 16.02353516 4 17 C0.68341387 12.0251208 -0.38479461 5.96431647 0 0 Z " fill="#9A2F58" transform="translate(35,64)"/>
<path d="M0 0 C4.29 0 8.58 0 13 0 C8.2792978 3.54052665 5.58039439 3 0 3 C0 2.01 0 1.02 0 0 Z " fill="#5F4E81" transform="translate(168,53)"/>
<path d="M0 0 C-0.33 0.66 -0.66 1.32 -1 2 C-5.95 2 -10.9 2 -16 2 C-16 1.34 -16 0.68 -16 0 C-14.95199219 0.01740234 -14.95199219 0.01740234 -13.8828125 0.03515625 C-12.97273438 0.04417969 -12.06265625 0.05320313 -11.125 0.0625 C-9.76761719 0.07990234 -9.76761719 0.07990234 -8.3828125 0.09765625 C-0.72115385 -0.21634615 -0.72115385 -0.21634615 0 0 Z " fill="#BA2E6F" transform="translate(67,169)"/>
<path d="M0 0 C2.86724686 0.57344937 3.8614515 0.8614515 6 3 C6.3125 6.4375 6.3125 6.4375 6 10 C5.01 10.99 4.02 11.98 3 13 C3 9.37 3 5.74 3 2 C2.01 1.67 1.02 1.34 0 1 C0 0.67 0 0.34 0 0 Z " fill="#264666" transform="translate(251,80)"/>
<path d="M0 0 C4.63425362 -0.32332002 7.28683289 0.1355568 11 3 C11.33 3.99 11.66 4.98 12 6 C11.34 6 10.68 6 10 6 C10 5.34 10 4.68 10 4 C7.36 3.67 4.72 3.34 2 3 C2 2.34 2 1.68 2 1 C1.34 0.67 0.68 0.34 0 0 Z " fill="#34598A" transform="translate(230,53)"/>
<path d="M0 0 C0.66 0 1.32 0 2 0 C1.88512252 1.58409994 1.75765492 3.16728963 1.625 4.75 C1.52058594 6.07257812 1.52058594 6.07257812 1.4140625 7.421875 C1.00149945 9.99066382 0.28839043 11.75841015 -1 14 C-1.33 14 -1.66 14 -2 14 C-1.85795259 12.41632253 -1.71119847 10.83306682 -1.5625 9.25 C-1.48128906 8.36828125 -1.40007812 7.4865625 -1.31640625 6.578125 C-1.03761535 4.30649548 -0.61209423 2.20148177 0 0 Z " fill="#3C426F" transform="translate(207,30)"/>
<path d="M0 0 C6.75 0.875 6.75 0.875 9 2 C9 2.66 9 3.32 9 4 C3.375 4.25 3.375 4.25 0 2 C0 1.34 0 0.68 0 0 Z " fill="#46466F" transform="translate(195,132)"/>
<path d="M0 0 C1.32 0.33 2.64 0.66 4 1 C3.01 1 2.02 1 1 1 C0.67 3.97 0.34 6.94 0 10 C-0.99 9.67 -1.98 9.34 -3 9 C-3.26218749 5.85375007 -3.24754367 4.38162983 -1.5 1.6875 C-1.005 1.130625 -0.51 0.57375 0 0 Z " fill="#613860" transform="translate(131,120)"/>
<path d="M0 0 C5.94 0.33 11.88 0.66 18 1 C16.68 1.99 15.36 2.98 14 4 C13.67 3.67 13.34 3.34 13 3 C10.81707226 2.76518307 8.62796826 2.58636677 6.4375 2.4375 C4.64119141 2.31181641 4.64119141 2.31181641 2.80859375 2.18359375 C1.88175781 2.12300781 0.95492187 2.06242187 0 2 C0 1.34 0 0.68 0 0 Z " fill="#81497E" transform="translate(123,52)"/>
<path d="M0 0 C1.65322266 0.01740234 1.65322266 0.01740234 3.33984375 0.03515625 C4.99693359 0.04869141 4.99693359 0.04869141 6.6875 0.0625 C7.54214844 0.07410156 8.39679688 0.08570312 9.27734375 0.09765625 C9.27734375 0.42765625 9.27734375 0.75765625 9.27734375 1.09765625 C8.12105469 1.26201172 8.12105469 1.26201172 6.94140625 1.4296875 C5.93851563 1.58824219 4.935625 1.74679688 3.90234375 1.91015625 C2.40574219 2.13638672 2.40574219 2.13638672 0.87890625 2.3671875 C-2.05139265 2.88537923 -2.05139265 2.88537923 -3.72265625 6.09765625 C-3.76537725 4.4315372 -3.76329457 2.7638274 -3.72265625 1.09765625 C-2.72265625 0.09765625 -2.72265625 0.09765625 0 0 Z " fill="#354066" transform="translate(212.72265625,19.90234375)"/>
<path d="M0 0 C2.31 0.33 4.62 0.66 7 1 C5.25 3.0625 5.25 3.0625 3 5 C0.75 4.75 0.75 4.75 -1 4 C-0.67 2.68 -0.34 1.36 0 0 Z " fill="#704683" transform="translate(153,107)"/>
<path d="M0 0 C-2.95183101 2.95183101 -5.95511947 3.08663988 -10 4 C-10 3.34 -10 2.68 -10 2 C-6.3558226 -0.4294516 -4.28758728 -0.16179575 0 0 Z " fill="#3F3F63" transform="translate(207,169)"/>
<path d="M0 0 C2.97 0.495 2.97 0.495 6 1 C6 2.98 6 4.96 6 7 C5.01 6.67 4.02 6.34 3 6 C3 5.01 3 4.02 3 3 C2.01 2.67 1.02 2.34 0 2 C0 1.34 0 0.68 0 0 Z " fill="#6E4786" transform="translate(154,119)"/>
<path d="M0 0 C0.66 0.99 1.32 1.98 2 3 C0.98819642 6.77126791 0.32378142 7.78414572 -3 10 C-2.05066101 6.64566891 -1.10251165 3.30753495 0 0 Z " fill="#384568" transform="translate(227,110)"/>
<path d="M0 0 C0.66 0.33 1.32 0.66 2 1 C1.6875 4.375 1.6875 4.375 1 8 C0.01 8.66 -0.98 9.32 -2 10 C-2.33 9.34 -2.66 8.68 -3 8 C-2.34 8 -1.68 8 -1 8 C-0.67 5.36 -0.34 2.72 0 0 Z " fill="#444772" transform="translate(204,44)"/>
<path d="M0 0 C-0.33 0.99 -0.66 1.98 -1 3 C-2.98 3 -4.96 3 -7 3 C-7 2.01 -7 1.02 -7 0 C-3.98968256 -0.93423645 -3.13349732 -1.04449911 0 0 Z " fill="#3C5793" transform="translate(226,115)"/>
<path d="M0 0 C1.98 0.99 1.98 0.99 4 2 C3.67 3.32 3.34 4.64 3 6 C2.01 5.67 1.02 5.34 0 5 C0 3.35 0 1.7 0 0 Z M-2 5 C-1.01 5.495 -1.01 5.495 0 6 C-0.99 6.495 -0.99 6.495 -2 7 C-2 6.34 -2 5.68 -2 5 Z " fill="#3A5283" transform="translate(224,107)"/>
<path d="M0 0 C0.66 0 1.32 0 2 0 C2.33 2.64 2.66 5.28 3 8 C2.01 8 1.02 8 0 8 C0 5.36 0 2.72 0 0 Z " fill="#B8204F" transform="translate(34,56)"/>
<path d="M0 0 C1.32 0 2.64 0 4 0 C4.66 1.32 5.32 2.64 6 4 C4.68 4.33 3.36 4.66 2 5 C2 4.34 2 3.68 2 3 C1.34 2.67 0.68 2.34 0 2 C0 1.34 0 0.68 0 0 Z " fill="#C42863" transform="translate(82,179)"/>
<path d="M0 0 C2.0625 0.4375 2.0625 0.4375 4 1 C4 1.66 4 2.32 4 3 C3.34 3 2.68 3 2 3 C2 3.66 2 4.32 2 5 C-0.475 4.01 -0.475 4.01 -3 3 C-2 2 -1 1 0 0 Z " fill="#524F86" transform="translate(195,168)"/>
</svg>
